<?xml version="1.0" encoding="UTF-8"?>
<svg xmlns="http://www.w3.org/2000/svg" version="1.1" viewBox="0 0 1800 1800">
  <!-- Generator: Adobe Illustrator 29.8.2, SVG Export Plug-In . SVG Version: 2.1.1 Build 3)  -->
  <defs>
    <style>
      .st0 {
        fill: #fff;
      }

      .st1 {
        display: none;
      }
    </style>
  </defs>
  <g id="Ligne1" class="st1">
    <polygon points="1032.1 1260.2 1484.5 1262.2 1509.1 1329.7 1032.1 1328.2 1032.1 1260.2"/>
    <path d="M756.1,1259.2v68l-474-1c5.4-16.7,9.3-34,14.7-50.8,1-3.2,3.1-11.4,4.4-13.6s.9-1.7,2.3-1.7l452.5-1Z"/>
  </g>
  <g id="Ligne_2">
    <path class="st0" d="M781.1,1175.2c1.1,1.1-7.7,16.1-8.9,18.6-3,6.5-7.1,15.1-9.2,21.8s-2.6,15.1-4.6,22.6l-457.4-.6v-62.5h480Z"/>
    <path class="st0" d="M1487.1,1178.2l1,61c-49.2-.2-98.4.3-147.6,0-3.1,0-5.8-1.1-8.9-1.1-100.3-.4-200.6.4-300.9,0-3.4-10-3.9-20.6-7.6-30.6-2.6-7-14.2-25.6-14.1-31l478,1.5Z"/>
  </g>
  <g id="Ligne_3">
    <path class="st0" d="M1496.5,1145.8c1.6,1.9,12.6,12.5,10.6,14.4l-509.5-.9c-4.9-.7-13.8-12.3-17.8-15.7-55.4-47.2-141.4-40.2-186.1,17.7l-82.1,1c-117.9-1.6-236.1-2-353.9-3.1-29.5-.3-59.1.7-88.6-.5.7-3.8,3.2-6.7,5.2-9.8,9.8-15,24.3-35.6,35.8-49.2,2.4-2.8,8.9-10.2,11.9-11.1,276.4-.2,553.1-1.3,829.6-.5,3.1,0,5.8,1.1,8.9,1.1,95.2.3,190.5-.7,285.5.5,16.7,18.8,34,37.1,50.4,56.1Z"/>
  </g>
  <g id="Ligne_4">
    <path class="st0" d="M1398.2,957.3c.6-.4,2.2,0,3,.4,2,1.3,10.6,24.6,9.9,26.9-2.5,4.1-21.8,3.6-22.8,0-.5-1.8,8.8-26.5,10-27.3Z"/>
    <path class="st0" d="M387.1,960.2c0,4.5,8.8,18.9,6.9,21.9-6.3,2.6-12.3,1.7-18.9.6-1.5-1.1-.5-1.2-.2-2.3,1.2-4.7,7.2-14.8,10.1-18.9s-.2-1.9,2.2-1.3Z"/>
    <path class="st0" d="M332.1,1073.2c-3.4-3.3,31.9-63.8,36-71.5,4.7-6,24.1-5.4,30.3-2.3s3.6,4.1,4.9,6.1c7.2,11.9,19.8,39.5,24.3,52.7s4.2,11.6,2,15h-97.5Z"/>
    <path class="st0" d="M1440.1,1074.2c-261.2.8-522.4-1-783.5,0-56.5.2-113.4,2-170,1.1l-3-1c-2.1-3,2-24.3,2.9-29.2,1.6-9.2,6.3-36.7,10.7-43.3,1.1-1.7,3.6-3.4,5-5,221.7-.1,443.7-1.6,665.5-.6,3.1,0,5.8,1.1,8.9,1.1,57.1.3,114.4-1,171.3.7,7.8,4.2,13,10.5,18.8,17,11.2-8.2,13.4-17.2,29.1-18.6s16.3-.9,21.1,7.7c6.6,11.8,15,36.6,19,50,2,6.6,3.8,13.3,4.3,20.2Z"/>
  </g>
  <g id="Ligne_5">
    <path class="st0" d="M384.1,907.2c0,4.7,2.8,20.7,0,23.5-4.2,4.3-13.4-.2-18-1.1-5.5-1-26.7-3.6-30-6-6.7-4.9,4.4-7,7.9-8,5-1.4,38.4-10.2,40-8.5Z"/>
    <path class="st0" d="M1344.1,986.2h-96c-.2-6.1,2.1-12,3.7-17.8,4.7-16.8,10.9-33.3,17.2-49.6,2.7-3,37.8-3.2,43.6-2.6s9.1,1.8,11,4c8,21.3,17.4,43.4,20.5,66Z"/>
    <path class="st0" d="M1228.1,985.2H500.6l-1.5-1.5v-60c0-.7.9-2.3.5-3.5.7-1.1,1.9-.9,3-1,34.6-3.5,74.1,3.5,109-1l46.5,1.1-13,38h25.5c2.7,0,5.4-4.3,6.7-6.3,4.2-6.9,10.9-29.4,16.5-32.6,1.2-.7,2.5-1.1,3.9-1.1h497.1c1.2-.2,2,.4,3,1,3.1,1.8,15,26.6,17.3,31.7,5.2,11.5,9.8,23.3,13.1,35.4Z"/>
  </g>
  <g id="Ligne_6">
    <path class="st0" d="M636.1,906.2l-136-.5,52-87c11.5-7,29-8.8,39.9.1,8.1,6.5,24.5,42.7,29.9,54.1,3.9,8.1,11.4,21.4,13.7,29.3s.6,2.6.5,4Z"/>
    <path class="st0" d="M1202.1,906.2h-56.5c-.7,0-2.3-2.4-2.5-3.5-1.3-6.7,0-16.6-1.5-23.5-1.5-7.5-8.8-10.6-8.1-19.9s13.3-37.2,17.7-42.3c1.3-1.6,1.7-2.3,3.8-3.2,7-2.8,29.5-2.3,35.5,2.5,5.5,4.4,20.7,36.4,21.4,43.6,1,11.7-5,11.5-7.6,19.1-2.8,8-.2,18.7-2.3,27.2Z"/>
    <path class="st0" d="M750.1,905.2l-53,1c.6-9.6,22-77.9,26.5-79s5,7.1,5.8,9.2c6.5,17.9,16.4,45.7,20.3,63.7.4,1.7.6,3.3.5,5Z"/>
    <path class="st0" d="M1275.6,907.2c-2.7-.8-1.1-5.7-.5-7.6,3.3-11.2,12.4-32.5,17.6-43.4,1.8-3.9,3.7-10,8.5-5.3l18.6,54.2-1.1,2.1h-43Z"/>
    <path class="st0" d="M1120.1,905.2h-340v-92s243.5,0,243.5,0l67.5,2.5c11.6,29.2,20.9,59.2,29,89.5Z"/>
    <path class="st0" d="M575,775.4c1.2.7,13.3,22.4,11.7,25.9-1,1.4-24.4,1.9-26.6.5s1.9-8.3,2.8-10.2c2.7-5.5,7.1-10.5,9.3-16.2.9-.2,2-.3,2.7,0Z"/>
    <path class="st0" d="M1298,790.3c1.5,4,2,23.6-1.6,24.8-16.1,0-31.8-5.3-47.4-8.9-.3-1.7.8-2.7,2.1-3.4,3.3-1.9,13-4.5,17.2-5.8s27.8-8.3,29.7-6.7Z"/>
  </g>
  <g id="Ligne_7">
    <path class="st0" d="M1170.1,728.7c-.6,4-2.1,6.6-6.4,6.5-6.4,0-18-2.9-24.8-4.4-6.7-1.4-13.4-3.1-19.8-5.2,0-2.4,4.6-4.7,6.6-5.4,12.3-4,27.5-5.9,40.1-10h3.2c0,.8,1.1,2,1.1,2.4,0,4.8.6,11.6,0,16Z"/>
    <path class="st0" d="M1172,762.3c1.9,5,16.1,38,14.1,39.9l-30.4.9-1.6-1.5c-.3-.9,0-1.7.1-2.6.6-3.8,9.3-26.4,11.3-30.7,1.4-3,2.4-5.9,6.4-6Z"/>
    <path class="st0" d="M574,746.1c-16.4,1.1-32.4-3.3-48.3-6.8-1.4-.9-.5-3.6.3-4.7,1.2-1.6,31.6-9.9,36.1-10.9,9.2-2.1,12.8-3,13.9,8.1s-.2,9.5-2,14.2Z"/>
    <path class="st0" d="M857.1,775.2c6.9.5,12.7-.7,16.8-6.7,9.3-21.5,17.8-43.3,29.1-63.9h2.1c0,.1,13.9,21.9,13.9,21.9l2.1.6c2.8-5.5,5.7-14,12.6-14.9,4-.5,8.6,1,12-1,1.4-2,.7-19.7,1.4-23.6s.3-2,1.6-2.4l120.9-.9c2.5.4,1.2,10.6,1.5,13.2.4,4.1,1.3,8.4,1.4,12.6,1.2,1.7,16,1.5,19.1,1.9s2.1.4,2.2,1.5l-1.7,89.5c-30.4-.6-61.2,1.3-91.5-1.1-69.8-3.3-143.8,4.5-213.1,0s-19.8-1.6-21.3-16.6c-1.3-12.8,6.2-7.1,7.7-12.1,1.1-14.4,4.4-28.7,10-42,3.8-9,18.1-38.9,23.7-45.3s15.8-4.9,21.8,1.2c6.4,18.5,16.7,36.5,23.2,54.7.8,2.4,4.5,12,4.5,13.5v19.5Z"/>
  </g>
  <g id="Ligne_8">
    <path class="st0" d="M815,625.1c-2.4.4-4.9.2-7.2,0-9-.9-29.1-4-37.3-6.7-2-.7-5.2-1.7-4.3-4.6s42.2-12.3,48.4-13.4c4.3,1,3,21,.4,24.7Z"/>
    <path class="st0" d="M948.1,541.2l125,1c1.1,13.6-4.2,25.1,2.8,37.7,3.6,6.6,9.5,8.6,9.3,17.8-.2,7.3-7.8,20.4-9.8,29.3-3.4,15.3-2.7,31.5-5.2,46.8l-121.4-.7c-1.3-.3-1.4-1.2-1.6-2.4-1.2-6.7,1.2-15.2,1.1-22-.3-17.6-8.3-35.9-14.7-52,2.9-5.7,8-10.2,10.8-15.8.9-1.8,3.8-8.8,3.8-10.2v-29.5Z"/>
  </g>
  <g id="Ligne_9">
    <path class="st0" d="M1015.1,371.3c0,1.6.5,2.9,1.2,4.3,19.9,42.4,43,84.2,62.1,127,2.2,4.9,9,18.3,9.6,22.4,1.8,10.8-12.2,6.8-19.4,7.2-37.3,1.9-82.8,3.3-120,1.1-6.7-.4-16.4-.2-15-9l75.2-150.8,6.3-2.2Z"/>
    <path class="st0" d="M1011.7,320.5c2.2.4,1.6,9,1.4,11.2s-.9,13.4-3.7,14.3c-4.5,1.5-31.3-3.7-37.4-5.3-19.8-5.1-4.8-9.7,5.3-12.8,11.2-3.4,22.9-5.1,34.3-7.5Z"/>
  </g>
  <g id="ARC">
    <path class="st0" d="M918.1,498.2c0,4,.2,10.2-1.8,13.8-3.4,6-21.6,2.3-27.7,2.2-174.1-2.6-329.2,50.4-469.5,150.6-143.2,102.3-248.8,265.4-294,435-14.2,53.4-27.9,118.8-31.1,173.9-1,17,.7,34.8,0,51.9l-23.1,2.6v-46.5c8-169.4,69.7-330,166.6-467.4,124-175.9,342.3-294.7,555.9-314.1,41.3-3.7,83.1-3.8,124.5-2Z"/>
    <path class="st0" d="M1301.8,587.6c121.2,61,230.5,167.8,305.5,280.9,41.6,62.7,70,126.3,87.3,199.7,16.6,70.5,25.2,135,26.5,207.5.3,14.8,1.7,38.3,0,52.1-.8,6.4-14.1,4.4-19.1,4l-.8-1.2-2.1-82.9c-8.4-169.3-53.9-310.1-162.5-440.5-92.7-111.2-205.9-198.6-345-244-28.2-9.2-57.5-15.2-85.4-25.1l2.3-14.9c1.4-1.9,6.4-1,8.6-.5,56.7,12.1,132.8,38.8,184.6,64.9Z"/>
  </g>
</svg>