<svg width="103" height="90" viewBox="0 0 103 90" fill="none" xmlns="http://www.w3.org/2000/svg">
<g clip-path="url(#clip0_164_341)">
<path d="M40.8192 31.9838L25.8947 19.9599L35.5732 23.1044C36.0424 23.4118 38.0683 22.389 38.0744 22.0937L28.6974 13.8109L29.2458 0.0214318C29.4925 -0.30428 33.1391 3.40945 33.587 3.7656C34.7659 4.69707 40.3074 7.95724 40.6638 8.54778C41.4102 9.77453 39.9053 16.0605 40.2312 18.1152C40.4628 19.5855 42.4003 21.7619 43.1071 23.1561L45.1665 10.91L47.2167 7.02576L48.1185 30.6323C48.3713 34.1238 50.2784 29.5699 50.4977 28.4162C50.778 26.9368 50.1504 25.6096 50.3149 24.6081C50.5891 22.9309 53.1877 19.7559 53.3157 17.6829C53.8549 17.7712 53.6569 19.2689 53.6295 19.6737C53.5868 20.316 53.337 20.9157 53.3157 21.491C53.203 24.392 53.4619 27.2838 53.008 30.1635L53.8945 30.1391C55.57 25.6857 56.3256 20.9461 57.6629 16.3984C57.992 15.2842 59.1039 11.3726 59.5548 10.6786C59.6492 10.5325 59.9447 10.2829 60.0117 10.3772C59.966 14.8033 60.2128 19.2415 60.9318 23.5945C62.4154 24.3098 62.6804 21.765 63.2836 20.7939L66.4184 7.33321L68.5448 12.919C68.5052 13.2478 69.1389 13.1686 69.2942 13.1017C69.803 12.8855 74.1472 4.81275 75.2561 3.83865L79.2104 0.334968C78.4335 4.19481 77.6811 7.94506 76.167 11.5918C77.4465 11.4214 78.7656 11.1778 80.0512 11.0591C80.3345 11.0348 81.0078 10.7882 80.7336 11.4366C80.6696 11.5857 78.8539 13.6405 78.5859 13.8596C76.7549 15.3573 73.2028 16.7971 71.0124 18.1639C70.1229 18.721 65.8822 21.3297 65.5045 21.7924C65.1237 22.2581 64.7246 25.3935 65.0444 25.29C69.9736 23.7436 74.3605 20.0086 79.515 19.6585C77.1479 21.3358 75.314 23.9476 72.9682 25.5974C71.4602 26.6598 69.541 27.3691 67.966 28.5136C65.343 30.4253 62.7901 33.1801 60.3255 35.3353C62.9729 34.3917 65.2272 32.4343 67.8594 31.4511C69.8456 30.7084 72.2858 30.3553 74.3391 29.8621L70.3544 33.031L61.8487 37.7705C69.7969 37.2013 76.7976 32.6809 84.697 31.6886L71.2957 41.7278C77.8578 41.8617 83.1007 37.2196 89.5713 36.559L88.9651 37.6244L83.4784 42.3366C84.5203 42.297 86.2659 42.297 87.2103 41.9591C87.8653 41.7247 88.6239 40.7537 89.3002 40.3945C90.3542 39.8344 91.5789 39.597 92.6147 38.9912L92.9011 40.3823C96.2491 40.3975 99.4387 41.7217 102.522 42.9484C102.878 43.0885 103.097 42.7171 102.973 43.5542L94.4517 46.1569L93.3763 48.4247L87.2042 43.6151L83.1738 43.8677L88.0389 49.2009L88.8036 50.5646L77.7024 44.3061C76.6666 44.0961 75.5303 44.1143 74.4762 44.1569C73.8334 44.1813 71.0673 44.4674 70.6864 44.6318C70.2386 44.8266 69.477 45.8738 69.7664 46.2969C71.3902 46.8296 73.1662 47.481 74.7047 48.2146C76.0329 48.8508 80.2492 50.7686 81.1266 51.4596C81.3155 51.6087 83.0062 54.6802 82.8631 54.8232C76.2584 52.5859 69.9005 47.7337 62.7596 47.828C63.835 48.9452 65.4283 49.4779 66.5799 50.5525C68.5082 52.3454 70.2356 55.2403 72.2005 57.1124L70.9058 57.1884L63.3689 54.3697L79.2073 70.5061C78.991 70.9445 78.461 70.4452 78.1868 70.3083C75.5668 68.9841 72.0909 67.2733 69.672 65.727C67.18 64.1349 65.1237 61.9128 62.7261 60.1868C62.4458 59.9859 61.4801 59.1671 61.2334 59.3984L63.9691 65.0329L72.8098 72.3325V87.7049L60.1732 77.6535L60.0087 65.9461L57.73 63.3587L53.6203 77.6566C53.4771 76.3294 53.075 74.8773 52.9958 73.5623C52.746 69.389 53.599 63.7575 52.9897 59.8702C52.9166 59.4106 51.9174 57.2767 51.6371 57.2706L50.8602 58.6192C50.711 65.2217 50.5556 71.8364 50.2784 78.4328C50.1321 81.9395 49.3279 86.6395 49.5168 89.991C49.5442 90.4841 48.6333 83.8329 48.353 82.1556C47.9022 79.4556 47.0065 76.8347 46.647 74.1194C46.0773 69.8516 46.4338 65.3586 45.0812 61.2218L38.6836 81.3094C38.1444 81.2211 38.3455 79.7235 38.3699 79.3186C38.6715 74.6551 39.1071 69.9917 39.3051 65.316L38.3851 62.135C38.0012 63.4044 36.9776 64.3754 36.5359 65.6143C35.5093 68.4788 35.4697 74.2198 33.8032 76.2776L18.8879 87.0931C18.6594 86.813 20.466 83.0963 20.7219 82.3839C22.0623 78.6093 23.3905 71.9916 25.9374 69.0267C26.7995 68.0222 28.7218 67.6234 29.8337 66.832C30.6136 66.2779 31.75 65.0116 32.4476 64.2689C33.2884 63.3709 37.5991 58.1838 36.8588 57.2646C31.0919 60.8322 25.2367 65.8122 18.3517 66.9294C18.0288 66.9811 17.2946 67.252 17.3677 66.7041L33.4864 55.8673L38.6897 50.8751C36.6882 49.8036 36.3227 51.1247 34.5923 51.8005C32.7492 52.5189 30.2999 52.9755 28.3319 53.3043L35.1894 48.1355C35.6128 47.5906 33.7667 47.8128 33.6601 47.828C31.1955 48.1659 28.21 49.5936 25.718 50.242C22.3822 51.1095 18.9458 51.8583 15.5399 52.3941L27.945 44.2452L28.6365 43.265C22.8665 43.3624 17.8338 46.6348 12.3381 47.8554L0 41.4143C0.0731145 40.9546 1.03579 40.7446 1.44401 40.5802C4.50568 39.3443 12.5269 36.0202 15.4241 35.9593C16.9717 35.9258 20.0455 39.1282 21.7972 39.5787L28.3319 38.979L19.8018 31.0706L35.6403 34.2638L33.5077 31.9808H40.8192V31.9838Z" fill="#CCFFE9" fill-opacity="0.77"/>
</g>
<defs>
<clipPath id="clip0_164_341">
<rect width="103" height="90" fill="white"/>
</clipPath>
</defs>
</svg>
