<?xml version="1.0" encoding="UTF-8"?>
<svg id="Calque_1" data-name="Calque 1" xmlns="http://www.w3.org/2000/svg" viewBox="0 0 729.03 429.99">
  <defs>
    <style>
      .cls-1 {
        fill: #2c0181;
      }
    </style>
  </defs>
  <path class="cls-1" d="M587.04,18.99c1.47,1.4-9.66,16.71-8.56,22.01,1.42,6.84,14.47,15.65,19.58,20.47,3.32,3.14,14.47,15.83,17.01,17.07,2.07,1.01,3.2-1.54,4.98-1.05,4.65,1.28,19.36,20.57,23.5,20.47,2.71-.06-1.32-6.4-1.22-8.32.14-2.71,2.71-5.76,2.63-9.05-.09-3.75-3.16-8.13-2.99-12.09.18-4.12,4.6-8.66,5.08-13l-3.01-1.01c7.06-8.35,21.28-6.52,31.34-8.66l6.3-6.76c1.24-.21,4.15,2.9,4.82,3.96,1.68,2.68.6,6.49,3.53,5.96,2.2-6.66,5.01-13.94,8.49-20.02.44-.76,3.15-6.67,4.52-4.98,1,12.54-2.7,24.9-11.84,33.69,4.02,12.72-2.07,41.58-16.65,45.31-2.63.67.64-3.93-1.99-2-5.27,3.85,1.02,15.58,3.32,20.67,3.29,7.29,7.08,14.43,13.16,19.83-1.41,1.78-4.5,3.15-3.84,5.76.45,1.78,8.19,13.8,9.81,15.29,11.41,10.5,21.86-12.62,34.03-3.05l-13.96,11,7.96,5c-14.44,8.29-30.39-1.99-41.02-11.96-2.24-2.1-6.42-9-8.99-10.08-2.18-.92-3.91,1.3-5.67,1.36-4.29.13-5.04-10.2-6.21-13.44-.37-1.03.49-1.81-1.48-1.28-6.18,1.67-13.99,12.06-20.68,14.47,3.51,6.43,5.63,13.58,6.05,20.95.33,5.86-1.15,10.73-1.06,16,.21,12.25,9.41,29.24-11.31,27.36-9.27-.84-33.61-8.88-40.64-7.42-2.36.49-4.63,3.1-6.71,4.32-1.67.98-4.26.7-5.76,2.24-2.09,2.14-1.92,7.93-5.27,11.01-1.02.94-13.16,8.63-14.51,9.2-1.53.64-3,1.1-4.67.74-5.3-18.49,2.9-18.51,12.6-28.3,2.1-2.12,6.44-9.43,7.65-10.35.58-.44,9.56-3.93,10.22-3.91,5.24.22,2.32,7.5,12.55,5.16,7.98-1.83,14.16-8.4,23.94-4.56l-10-17.55c-7.36.06-21.27,7.84-24.49-2.43l-36.18,24.82c-14.1,2.81-16.13,14.34-28.79,19.21-3.61,1.39-7.96,1.75-11.56,3.46l-1.49,7.48c-4.56.26-6.81,5.47-8.52,6.5-2.06,1.23-5.54.4-8.49,2.51-2.35,1.68-2.8,4.53-4.48,6.52-6.6,7.82-14.94,5.68-24.01,4.49.66-7.02,6.02-14.82,11.51-18.99,3.84-2.93,7.95-3.54,11.43-5.57,14.22-8.3,31.29-23.13,44.98-34.02,8.43-6.7,26.65-25.1,31.91-34.09,5.88-10.06.19-11.92,12.82-18.18,13.38-6.62,35.39-7.21,41.59-22.4,4.73-11.58-11.69-11.67-14.79-16.76-.76-1.24.74-3.68.65-5.49-.21-4.58-13.5-16.55-17.07-21.03-7.02-8.8-12.21-20.77-19.02-28.69-2.56-2.98-6.61-4.34-8.51-8.78-1.89-4.44-3.08-21.52-2.5-26.5.51-4.4,2.84-7.43,4.07-11.47,13.54-.44,7.53,15.31,14.91,22.54,2.2,1.16,6.52-6.08,11.01-3.56Z"/>
  <path class="cls-1" d="M421.06,251.98l-2-3c.21,3.09-.37,6.38.04,9.45.23,1.7,2.07,2.77,1.98,4.95-.1,2.38-3.04,4.83-2.82,6.95.04.4,3.43,6.95,3.77,7.18,2.09,1.42,21.92.14,26.45,1.38,7.08-.88,12-8.01,19.58-6.91l-6.98,8.5,3.98,4.49c-4.17-.48-8.52.44-12.53.52-1.49.03-2.95-1.22-4.78-1.19-5.04.09-10.73,3.54-16.18,3.74-4.68.17-8.6-2.42-11.93-2.06-.54.06-9.5,3.59-10.14,3.94-6.35,3.6-4.34,7.68-5.67,12.33-3.85,13.5-9.21,20.23-15.31,31.69-3.63,6.84-5.63,14.94-9.64,21.36-4.83,7.73-12.91,11.79-18.85,18.15-4.75,5.08-8.56,12.61-13.57,17.43-16.03,15.4-16.56-7.61-20.38-17.42-.84-2.17-3.59-4.89-3.84-6.2-.3-1.57.99-3.06.66-4.58-.2-.94-13.35-12.36-14.52-12.52-2.91-.41-6.14,5.81-8.3,7.35l-2.5-.55c-3.26-5.48,2.36-8.99,4.46-13.44l-3.94-10.09c-8.54.24-11.3,10.29-17.05,15.11l-1.37.4c-7.09-3.36,2.23-18.56,6.4-20.43,2.68-1.2,5.62.05,8.28-.72,1.65-.48,3.44-3.44,5.37-4.63,9.75-6,20.93-4.07,31.56-6.44,6.96-1.55,25.65-12.84,32.91-17.09,1.92-1.13,13.89-10.59,14.43-11.64,3.35-6.49-12.44-5.77-14.83-6.22-6.75-1.27-13.8-4.78-20.28-6.72-3.48-1.04-6.98-.65-10.18-1.82-5.9-2.15-12.47-11.76-11.27-18.23,4.89-.69,7.46,2.96,10.51,6,2.04.45,2.54-2.57,2.55-3.95l2.93-.06c-.07,2.79.85,10.87,3.67,11.84,12.21.3,24.2,6.44,36.32,4.16l-1.95-5.36,4.94-4.15c.14-3.45-3.38.5-5.54-1.36-1.15-.99-2.17-3.87-1.36-5.03,1.41-2.02,8.54,1.27,10.44-2.04l.07-8.15c2.72-2.03,5.11,1.24,6.75.95s10.4-8.72,14.93-10.07c2.53-.76,8.49-1.87,10.21.23.61.75.66,2.46,1.5,3.5,2.39,2.93,8.27,6.94,3.02,10.49Z"/>
  <path class="cls-1" d="M147.55,366.98c-.35-.09-1.74-1.63-1.5-1.98,9.49-5.5,17.23-10,28.49-11.09,2.53-.25,5,.95,6.88.77,3.17-.3,8.47-3.76,13.15-3.71,2.54.03,4.61,1.58,7.06,1.93,2.03.29,9.99-.48,10.49,1.73.32,6.88-2.63,8.17-9.06,7.33l5-4.49c-2.27-3.6-12.4,2.99-11.96,4.94,8.12,7.18,14.83,19.45,25.96,21.56.42-3.6-6.13-5.63-6.83-7.65-1.88-5.45,2.24-9.96,1.9-14.83-.24-3.43-3.25-6.56-3.03-9.95.83-12.86,26.67-14.95,33.51-7.62,4.09,4.39-1.89,9.11-.44,13.41,1.13,3.34,10.52-.63,7.01,6.22l1.88.92c-1.4,2.07-6.21,5.11-6.82,7.22-.78,2.71.72,4.66.53,6.66-.25,2.75-4.85,8.93-7.2,10.63s-5.97,1.26-5.5,3.98l12.27,1.83c4.47-2.07,5.53-9.69,11.16-8.85s2.48,5.23-.41,7.57l-.02,1.44c7.18,2.93-1.68,2.61-4.04,3.48-14.55,5.4-21.1,4.78-35.22,7.78-5.9,1.25-11.83,5.63-17.48,6.52-14.67,2.31-15.64,3.24-29,8s-11.39-.71-19.75-.76c-4.16-.03-9.57,2.71-13.94,1.98-5.49-.91-7.01-9.32-13.57-8.99l3.99-3.5-4.85-1.63c-3.38-6.13.94-10.1,1.85-15.86-6.51,3.16-8.26,22.6-18.03,13.54-7.96-7.38.1-10.38,3.58-14.5,2.35-2.78,5.31-9.48,9.02-10.06,2.63-.41,4.76,1.07,6.98,1.06,2.36,0,4.26-1.73,6.93-2.07,6.19-.78,12.14,1.59,18.04,1.04,7.42-.7,12.22-4.73,21.04-4.04,6.69.52,10.87,5.06,17.45,5.03.98-4.47-2.21-7.33-3.52-10.97-.84-2.34-.14-7.14-2.46-8.56-2.57-1.57-14.11,4.54-18.51,4.54-4.93,0-17.23.95-21,0Z"/>
  <path class="cls-1" d="M87.35,355.69c1.32,1.46,4.91,1.94,5.7,4.29l-7.98,2.51,1.69,2-1.71,2.49,8.07.59c1.35-.99,1.33-12.94,7.23-11.47,5.16,1.28,1.29,9.06,1.84,11.21.43,1.66,3.84,2.86,2.84,5.69l-3.69-.25-35.32,15.72c-4.37,7.5,4.25,7.67,6.77,9.77,1.99,1.65.66,7.47-.7,9.31-.4.54-9.49,8.62-10.09,8.9-2.02.95-4.73.73-7.2,1.8-6.6,2.85-12.5,10.94-20.37,11.7-6.21.6-12.05-4.25-5.28-8.39,2.31-1.41,6.35.15,5.88-2.04-.89-4.1-6.72-1.85-8.48-5.52-4.53-9.47,5.96-7.07,10.49-3l-.99-4.99,11.99,1.99c.17-3.27-1.38-7.66,3-8.02l-.98-2.52c-4.21.13-8.31.59-12.56.58-2.69,0-4.91-1.26-7.83-1-4.03.36-7.86,3.82-11.61,4.57-1.91.38-3.54-.57-5.05-.18-2.79.72-5.81,5.42-10.29,3.41-4.09-1.39-2.79-11.56-1.09-14.77,2.81-5.3,9.48-5,12.4-7.6,2.43-2.17,1.34-6.44,4.06-7.98.97-.55,2.61.2,3.72-.19,1.21-.42,1.23-1.98,2.5-2.6,9.2-4.49,18.06-2.54,27.74-.71-.11-2.96-2.88-3.01-3.09-6.49-.23-3.96,2.67-5.98,3.09-9.5l-3.99.5c4.05-3.17,4.39-4.59,3-9.5,4.19,2.58,4.15-2.41,6.01-3.54.51-.31,10.45-2.37,11.49-2.46,14.83-1.33,13.01,9.31,18.8,15.71Z"/>
</svg>