<svg version="1.1" viewBox="0.0 0.0 600.0 371.0" fill="none" stroke="none" stroke-linecap="square" stroke-miterlimit="10" width="600" height="371" xmlns:xlink="http://www.w3.org/1999/xlink" xmlns="http://www.w3.org/2000/svg"><path fill="#ffffff" d="M0 0L600.0 0L600.0 371.0L0 371.0L0 0Z" fill-rule="nonzero"/><path stroke="#cccccc" stroke-width="1.0" stroke-linecap="butt" d="M125.5 61.5L125.5 300.5" fill-rule="nonzero"/><path stroke="#cccccc" stroke-width="1.0" stroke-linecap="butt" d="M232.5 61.5L232.5 300.5" fill-rule="nonzero"/><path stroke="#cccccc" stroke-width="1.0" stroke-linecap="butt" d="M340.5 61.5L340.5 300.5" fill-rule="nonzero"/><path stroke="#cccccc" stroke-width="1.0" stroke-linecap="butt" d="M447.5 61.5L447.5 300.5" fill-rule="nonzero"/><path stroke="#cccccc" stroke-width="1.0" stroke-linecap="butt" d="M554.5 61.5L554.5 300.5" fill-rule="nonzero"/><path stroke="#333333" stroke-width="1.0" stroke-linecap="butt" d="M109.5 300.5L581.5 300.5" fill-rule="nonzero"/><path stroke="#cccccc" stroke-width="1.0" stroke-linecap="butt" d="M109.5 252.5L581.5 252.5" fill-rule="nonzero"/><path stroke="#cccccc" stroke-width="1.0" stroke-linecap="butt" d="M109.5 205.5L581.5 205.5" fill-rule="nonzero"/><path stroke="#cccccc" stroke-width="1.0" stroke-linecap="butt" d="M109.5 157.5L581.5 157.5" fill-rule="nonzero"/><path stroke="#cccccc" stroke-width="1.0" stroke-linecap="butt" d="M109.5 109.5L581.5 109.5" fill-rule="nonzero"/><path stroke="#cccccc" stroke-width="1.0" stroke-linecap="butt" d="M109.5 61.5L581.5 61.5" fill-rule="nonzero"/><clipPath id="id_0"><path d="M109.55 61.916668L581.45 61.916668L581.45 300.45L109.55 300.45L109.55 61.916668Z" clip-rule="nonzero"/></clipPath><path stroke="#4285f4" stroke-width="2.0" stroke-linecap="butt" clip-path="url(#id_0)" d="M109.55 296.87827L125.6375 297.25134L157.8125 299.20963L179.2625 295.41998L200.7125 299.91187L206.075 298.66312L227.525 300.26938L238.25 296.84525L243.6125 300.27386L248.975 300.0267L254.3375 298.49786L270.425 297.74326L275.7875 300.03897L286.5125 296.45013L291.875 300.10898L302.6 299.8383L313.325 299.84094L324.05 297.8029L334.775 299.76605L340.1375 300.18475L345.5 299.30698L350.8625 299.71304L356.225 299.70895L361.5875 299.09515L366.95 299.0573L372.3125 295.59302L377.675 289.7597L383.0375 287.07132L388.4 283.81396L393.7625 282.38794L399.125 283.91L404.4875 276.8319L409.85 284.3368L415.2125 267.02014L420.575 264.0422L425.9375 260.6161L431.3 276.22714L436.6625 255.29881L442.025 256.14224L447.3875 264.91034L452.75 262.2262L458.1125 266.41873L463.475 240.69739L468.8375 253.31749L474.2 260.64072L479.5625 246.29834L484.925 237.93059L490.2875 253.98218L495.65 248.7883L501.0125 221.954L506.375 245.03377L511.7375 234.42987L517.1 202.02625L522.4625 228.20831L527.825 183.27196L533.1875 160.98076L538.55 180.66989L543.9125 166.54126L549.275 90.664894L554.6375 293.89514L560.0 261.36646L565.3625 245.47052L570.725 237.18793L576.0875 208.46584L581.45 245.74347" fill-rule="nonzero"/><path fill="#000000" fill-opacity="0.0" clip-path="url(#id_0)" d="M112.55 296.87827C112.55 298.53513 111.206856 299.87827 109.55 299.87827C107.89314 299.87827 106.55 298.53513 106.55 296.87827C106.55 295.2214 107.89314 293.87827 109.55 293.87827C111.206856 293.87827 112.55 295.2214 112.55 296.87827Z" fill-rule="nonzero"/><path fill="#000000" fill-opacity="0.0" clip-path="url(#id_0)" d="M128.6375 297.25134C128.6375 298.9082 127.29436 300.25134 125.6375 300.25134C123.980644 300.25134 122.6375 298.9082 122.6375 297.25134C122.6375 295.59448 123.980644 294.25134 125.6375 294.25134C127.29436 294.25134 128.6375 295.59448 128.6375 297.25134Z" fill-rule="nonzero"/><path fill="#000000" fill-opacity="0.0" clip-path="url(#id_0)" d="M160.8125 299.20963C160.8125 300.8665 159.46936 302.20963 157.8125 302.20963C156.15564 302.20963 154.8125 300.8665 154.8125 299.20963C154.8125 297.55276 156.15564 296.20963 157.8125 296.20963C159.46936 296.20963 160.8125 297.55276 160.8125 299.20963Z" fill-rule="nonzero"/><path fill="#000000" fill-opacity="0.0" clip-path="url(#id_0)" d="M182.2625 295.41998C182.2625 297.0768 180.91936 298.41998 179.2625 298.41998C177.60565 298.41998 176.2625 297.0768 176.2625 295.41998C176.2625 293.76312 177.60565 292.41998 179.2625 292.41998C180.91936 292.41998 182.2625 293.76312 182.2625 295.41998Z" fill-rule="nonzero"/><path fill="#000000" fill-opacity="0.0" clip-path="url(#id_0)" d="M203.7125 299.91187C203.7125 301.56873 202.36935 302.91187 200.7125 302.91187C199.05565 302.91187 197.7125 301.56873 197.7125 299.91187C197.7125 298.255 199.05565 296.91187 200.7125 296.91187C202.36935 296.91187 203.7125 298.255 203.7125 299.91187Z" fill-rule="nonzero"/><path fill="#000000" fill-opacity="0.0" clip-path="url(#id_0)" d="M209.075 298.66312C209.075 300.31998 207.73186 301.66312 206.075 301.66312C204.41815 301.66312 203.075 300.31998 203.075 298.66312C203.075 297.0063 204.41815 295.66312 206.075 295.66312C207.73186 295.66312 209.075 297.0063 209.075 298.66312Z" fill-rule="nonzero"/><path fill="#000000" fill-opacity="0.0" clip-path="url(#id_0)" d="M230.525 300.26938C230.525 301.92624 229.18185 303.26938 227.525 303.26938C225.86815 303.26938 224.525 301.92624 224.525 300.26938C224.525 298.61255 225.86815 297.26938 227.525 297.26938C229.18185 297.26938 230.525 298.61255 230.525 300.26938Z" fill-rule="nonzero"/><path fill="#000000" fill-opacity="0.0" clip-path="url(#id_0)" d="M241.25 296.84525C241.25 298.5021 239.90686 299.84525 238.25 299.84525C236.59314 299.84525 235.25 298.5021 235.25 296.84525C235.25 295.1884 236.59314 293.84525 238.25 293.84525C239.90686 293.84525 241.25 295.1884 241.25 296.84525Z" fill-rule="nonzero"/><path fill="#000000" fill-opacity="0.0" clip-path="url(#id_0)" d="M246.6125 300.27386C246.6125 301.9307 245.26935 303.27386 243.6125 303.27386C241.95564 303.27386 240.6125 301.9307 240.6125 300.27386C240.6125 298.617 241.95564 297.27386 243.6125 297.27386C245.26935 297.27386 246.6125 298.617 246.6125 300.27386Z" fill-rule="nonzero"/><path fill="#000000" fill-opacity="0.0" clip-path="url(#id_0)" d="M251.975 300.0267C251.975 301.68356 250.63185 303.0267 248.975 303.0267C247.31815 303.0267 245.975 301.68356 245.975 300.0267C245.975 298.36984 247.31815 297.0267 248.975 297.0267C250.63185 297.0267 251.975 298.36984 251.975 300.0267Z" fill-rule="nonzero"/><path fill="#000000" fill-opacity="0.0" clip-path="url(#id_0)" d="M257.3375 298.49786C257.3375 300.15472 255.99435 301.49786 254.3375 301.49786C252.68065 301.49786 251.3375 300.15472 251.3375 298.49786C251.3375 296.841 252.68065 295.49786 254.3375 295.49786C255.99435 295.49786 257.3375 296.841 257.3375 298.49786Z" fill-rule="nonzero"/><path fill="#000000" fill-opacity="0.0" clip-path="url(#id_0)" d="M273.425 297.74326C273.425 299.40012 272.08185 300.74326 270.425 300.74326C268.76816 300.74326 267.425 299.40012 267.425 297.74326C267.425 296.0864 268.76816 294.74326 270.425 294.74326C272.08185 294.74326 273.425 296.0864 273.425 297.74326Z" fill-rule="nonzero"/><path fill="#000000" fill-opacity="0.0" clip-path="url(#id_0)" d="M278.7875 300.03897C278.7875 301.6958 277.44437 303.03897 275.7875 303.03897C274.13065 303.03897 272.7875 301.6958 272.7875 300.03897C272.7875 298.3821 274.13065 297.03897 275.7875 297.03897C277.44437 297.03897 278.7875 298.3821 278.7875 300.03897Z" fill-rule="nonzero"/><path fill="#000000" fill-opacity="0.0" clip-path="url(#id_0)" d="M289.5125 296.45013C289.5125 298.107 288.16934 299.45013 286.5125 299.45013C284.85565 299.45013 283.5125 298.107 283.5125 296.45013C283.5125 294.79327 284.85565 293.45013 286.5125 293.45013C288.16934 293.45013 289.5125 294.79327 289.5125 296.45013Z" fill-rule="nonzero"/><path fill="#000000" fill-opacity="0.0" clip-path="url(#id_0)" d="M294.875 300.10898C294.875 301.76584 293.53186 303.10898 291.875 303.10898C290.21814 303.10898 288.875 301.76584 288.875 300.10898C288.875 298.45212 290.21814 297.10898 291.875 297.10898C293.53186 297.10898 294.875 298.45212 294.875 300.10898Z" fill-rule="nonzero"/><path fill="#000000" fill-opacity="0.0" clip-path="url(#id_0)" d="M305.6 299.8383C305.6 301.49512 304.25687 302.8383 302.6 302.8383C300.94315 302.8383 299.6 301.49512 299.6 299.8383C299.6 298.18143 300.94315 296.8383 302.6 296.8383C304.25687 296.8383 305.6 298.18143 305.6 299.8383Z" fill-rule="nonzero"/><path fill="#000000" fill-opacity="0.0" clip-path="url(#id_0)" d="M316.325 299.84094C316.325 301.4978 314.98184 302.84094 313.325 302.84094C311.66815 302.84094 310.325 301.4978 310.325 299.84094C310.325 298.18408 311.66815 296.84094 313.325 296.84094C314.98184 296.84094 316.325 298.18408 316.325 299.84094Z" fill-rule="nonzero"/><path fill="#000000" fill-opacity="0.0" clip-path="url(#id_0)" d="M327.05 297.8029C327.05 299.45975 325.70685 300.8029 324.05 300.8029C322.39316 300.8029 321.05 299.45975 321.05 297.8029C321.05 296.14606 322.39316 294.8029 324.05 294.8029C325.70685 294.8029 327.05 296.14606 327.05 297.8029Z" fill-rule="nonzero"/><path fill="#000000" fill-opacity="0.0" clip-path="url(#id_0)" d="M337.775 299.76605C337.775 301.42288 336.43185 302.76605 334.775 302.76605C333.11813 302.76605 331.775 301.42288 331.775 299.76605C331.775 298.1092 333.11813 296.76605 334.775 296.76605C336.43185 296.76605 337.775 298.1092 337.775 299.76605Z" fill-rule="nonzero"/><path fill="#000000" fill-opacity="0.0" clip-path="url(#id_0)" d="M343.1375 300.18475C343.1375 301.8416 341.79434 303.18475 340.1375 303.18475C338.48065 303.18475 337.1375 301.8416 337.1375 300.18475C337.1375 298.5279 338.48065 297.18475 340.1375 297.18475C341.79434 297.18475 343.1375 298.5279 343.1375 300.18475Z" fill-rule="nonzero"/><path fill="#000000" fill-opacity="0.0" clip-path="url(#id_0)" d="M348.5 299.30698C348.5 300.9638 347.15686 302.30698 345.5 302.30698C343.84314 302.30698 342.5 300.9638 342.5 299.30698C342.5 297.65012 343.84314 296.30698 345.5 296.30698C347.15686 296.30698 348.5 297.65012 348.5 299.30698Z" fill-rule="nonzero"/><path fill="#000000" fill-opacity="0.0" clip-path="url(#id_0)" d="M353.8625 299.71304C353.8625 301.3699 352.51935 302.71304 350.8625 302.71304C349.20566 302.71304 347.8625 301.3699 347.8625 299.71304C347.8625 298.0562 349.20566 296.71304 350.8625 296.71304C352.51935 296.71304 353.8625 298.0562 353.8625 299.71304Z" fill-rule="nonzero"/><path fill="#000000" fill-opacity="0.0" clip-path="url(#id_0)" d="M359.225 299.70895C359.225 301.3658 357.88187 302.70895 356.225 302.70895C354.56815 302.70895 353.225 301.3658 353.225 299.70895C353.225 298.0521 354.56815 296.70895 356.225 296.70895C357.88187 296.70895 359.225 298.0521 359.225 299.70895Z" fill-rule="nonzero"/><path fill="#000000" fill-opacity="0.0" clip-path="url(#id_0)" d="M364.5875 299.09515C364.5875 300.75198 363.24435 302.09515 361.5875 302.09515C359.93063 302.09515 358.5875 300.75198 358.5875 299.09515C358.5875 297.4383 359.93063 296.09515 361.5875 296.09515C363.24435 296.09515 364.5875 297.4383 364.5875 299.09515Z" fill-rule="nonzero"/><path fill="#000000" fill-opacity="0.0" clip-path="url(#id_0)" d="M369.95 299.0573C369.95 300.71417 368.60684 302.0573 366.95 302.0573C365.29315 302.0573 363.95 300.71417 363.95 299.0573C363.95 297.40045 365.29315 296.0573 366.95 296.0573C368.60684 296.0573 369.95 297.40045 369.95 299.0573Z" fill-rule="nonzero"/><path fill="#000000" fill-opacity="0.0" clip-path="url(#id_0)" d="M375.3125 295.59302C375.3125 297.24988 373.96936 298.59302 372.3125 298.59302C370.65564 298.59302 369.3125 297.24988 369.3125 295.59302C369.3125 293.93616 370.65564 292.59302 372.3125 292.59302C373.96936 292.59302 375.3125 293.93616 375.3125 295.59302Z" fill-rule="nonzero"/><path fill="#000000" fill-opacity="0.0" clip-path="url(#id_0)" d="M380.675 289.7597C380.675 291.41656 379.33185 292.7597 377.675 292.7597C376.01816 292.7597 374.675 291.41656 374.675 289.7597C374.675 288.10287 376.01816 286.7597 377.675 286.7597C379.33185 286.7597 380.675 288.10287 380.675 289.7597Z" fill-rule="nonzero"/><path fill="#000000" fill-opacity="0.0" clip-path="url(#id_0)" d="M386.0375 287.07132C386.0375 288.72815 384.69437 290.07132 383.0375 290.07132C381.38065 290.07132 380.0375 288.72815 380.0375 287.07132C380.0375 285.41446 381.38065 284.07132 383.0375 284.07132C384.69437 284.07132 386.0375 285.41446 386.0375 287.07132Z" fill-rule="nonzero"/><path fill="#000000" fill-opacity="0.0" clip-path="url(#id_0)" d="M391.4 283.81396C391.4 285.47083 390.05685 286.81396 388.4 286.81396C386.74313 286.81396 385.4 285.47083 385.4 283.81396C385.4 282.15714 386.74313 280.81396 388.4 280.81396C390.05685 280.81396 391.4 282.15714 391.4 283.81396Z" fill-rule="nonzero"/><path fill="#000000" fill-opacity="0.0" clip-path="url(#id_0)" d="M396.7625 282.38794C396.7625 284.04477 395.41934 285.38794 393.7625 285.38794C392.10565 285.38794 390.7625 284.04477 390.7625 282.38794C390.7625 280.73108 392.10565 279.38794 393.7625 279.38794C395.41934 279.38794 396.7625 280.73108 396.7625 282.38794Z" fill-rule="nonzero"/><path fill="#000000" fill-opacity="0.0" clip-path="url(#id_0)" d="M402.125 283.91C402.125 285.56683 400.78186 286.91 399.125 286.91C397.46814 286.91 396.125 285.56683 396.125 283.91C396.125 282.25314 397.46814 280.91 399.125 280.91C400.78186 280.91 402.125 282.25314 402.125 283.91Z" fill-rule="nonzero"/><path fill="#000000" fill-opacity="0.0" clip-path="url(#id_0)" d="M407.4875 276.8319C407.4875 278.48877 406.14435 279.8319 404.4875 279.8319C402.83066 279.8319 401.4875 278.48877 401.4875 276.8319C401.4875 275.17505 402.83066 273.8319 404.4875 273.8319C406.14435 273.8319 407.4875 275.17505 407.4875 276.8319Z" fill-rule="nonzero"/><path fill="#000000" fill-opacity="0.0" clip-path="url(#id_0)" d="M412.85 284.3368C412.85 285.99365 411.50687 287.3368 409.85 287.3368C408.19315 287.3368 406.85 285.99365 406.85 284.3368C406.85 282.67993 408.19315 281.3368 409.85 281.3368C411.50687 281.3368 412.85 282.67993 412.85 284.3368Z" fill-rule="nonzero"/><path fill="#000000" fill-opacity="0.0" clip-path="url(#id_0)" d="M418.2125 267.02014C418.2125 268.677 416.86935 270.02014 415.2125 270.02014C413.55563 270.02014 412.2125 268.677 412.2125 267.02014C412.2125 265.36328 413.55563 264.02014 415.2125 264.02014C416.86935 264.02014 418.2125 265.36328 418.2125 267.02014Z" fill-rule="nonzero"/><path fill="#000000" fill-opacity="0.0" clip-path="url(#id_0)" d="M423.575 264.0422C423.575 265.69907 422.23184 267.0422 420.575 267.0422C418.91815 267.0422 417.575 265.69907 417.575 264.0422C417.575 262.38535 418.91815 261.0422 420.575 261.0422C422.23184 261.0422 423.575 262.38535 423.575 264.0422Z" fill-rule="nonzero"/><path fill="#000000" fill-opacity="0.0" clip-path="url(#id_0)" d="M428.9375 260.6161C428.9375 262.27295 427.59436 263.6161 425.9375 263.6161C424.28064 263.6161 422.9375 262.27295 422.9375 260.6161C422.9375 258.95923 424.28064 257.6161 425.9375 257.6161C427.59436 257.6161 428.9375 258.95923 428.9375 260.6161Z" fill-rule="nonzero"/><path fill="#000000" fill-opacity="0.0" clip-path="url(#id_0)" d="M434.3 276.22714C434.3 277.884 432.95685 279.22714 431.3 279.22714C429.64316 279.22714 428.3 277.884 428.3 276.22714C428.3 274.5703 429.64316 273.22714 431.3 273.22714C432.95685 273.22714 434.3 274.5703 434.3 276.22714Z" fill-rule="nonzero"/><path fill="#000000" fill-opacity="0.0" clip-path="url(#id_0)" d="M439.6625 255.29881C439.6625 256.95566 438.31937 258.29883 436.6625 258.29883C435.00565 258.29883 433.6625 256.95566 433.6625 255.29881C433.6625 253.64197 435.00565 252.29881 436.6625 252.29881C438.31937 252.29881 439.6625 253.64197 439.6625 255.29881Z" fill-rule="nonzero"/><path fill="#000000" fill-opacity="0.0" clip-path="url(#id_0)" d="M445.025 256.14224C445.025 257.7991 443.68185 259.14224 442.025 259.14224C440.36813 259.14224 439.025 257.7991 439.025 256.14224C439.025 254.4854 440.36813 253.14224 442.025 253.14224C443.68185 253.14224 445.025 254.4854 445.025 256.14224Z" fill-rule="nonzero"/><path fill="#000000" fill-opacity="0.0" clip-path="url(#id_0)" d="M450.3875 264.91034C450.3875 266.5672 449.04434 267.91034 447.3875 267.91034C445.73065 267.91034 444.3875 266.5672 444.3875 264.91034C444.3875 263.25348 445.73065 261.91034 447.3875 261.91034C449.04434 261.91034 450.3875 263.25348 450.3875 264.91034Z" fill-rule="nonzero"/><path fill="#000000" fill-opacity="0.0" clip-path="url(#id_0)" d="M455.75 262.2262C455.75 263.88306 454.40686 265.2262 452.75 265.2262C451.09314 265.2262 449.75 263.88306 449.75 262.2262C449.75 260.56934 451.09314 259.2262 452.75 259.2262C454.40686 259.2262 455.75 260.56934 455.75 262.2262Z" fill-rule="nonzero"/><path fill="#000000" fill-opacity="0.0" clip-path="url(#id_0)" d="M461.1125 266.41873C461.1125 268.0756 459.76935 269.41873 458.1125 269.41873C456.45566 269.41873 455.1125 268.0756 455.1125 266.41873C455.1125 264.7619 456.45566 263.41873 458.1125 263.41873C459.76935 263.41873 461.1125 264.7619 461.1125 266.41873Z" fill-rule="nonzero"/><path fill="#000000" fill-opacity="0.0" clip-path="url(#id_0)" d="M466.475 240.69739C466.475 242.35423 465.13187 243.69739 463.475 243.69739C461.81815 243.69739 460.475 242.35423 460.475 240.69739C460.475 239.04053 461.81815 237.69739 463.475 237.69739C465.13187 237.69739 466.475 239.04053 466.475 240.69739Z" fill-rule="nonzero"/><path fill="#000000" fill-opacity="0.0" clip-path="url(#id_0)" d="M471.8375 253.31749C471.8375 254.97433 470.49435 256.31747 468.8375 256.31747C467.18063 256.31747 465.8375 254.97433 465.8375 253.31749C465.8375 251.66063 467.18063 250.31749 468.8375 250.31749C470.49435 250.31749 471.8375 251.66063 471.8375 253.31749Z" fill-rule="nonzero"/><path fill="#000000" fill-opacity="0.0" clip-path="url(#id_0)" d="M477.2 260.64072C477.2 262.29758 475.85684 263.64072 474.2 263.64072C472.54315 263.64072 471.2 262.29758 471.2 260.64072C471.2 258.98386 472.54315 257.64072 474.2 257.64072C475.85684 257.64072 477.2 258.98386 477.2 260.64072Z" fill-rule="nonzero"/><path fill="#000000" fill-opacity="0.0" clip-path="url(#id_0)" d="M482.5625 246.29834C482.5625 247.9552 481.21936 249.29834 479.5625 249.29834C477.90564 249.29834 476.5625 247.9552 476.5625 246.29834C476.5625 244.6415 477.90564 243.29834 479.5625 243.29834C481.21936 243.29834 482.5625 244.6415 482.5625 246.29834Z" fill-rule="nonzero"/><path fill="#000000" fill-opacity="0.0" clip-path="url(#id_0)" d="M487.925 237.93059C487.925 239.58745 486.58185 240.93059 484.925 240.93059C483.26816 240.93059 481.925 239.58745 481.925 237.93059C481.925 236.27374 483.26816 234.93059 484.925 234.93059C486.58185 234.93059 487.925 236.27374 487.925 237.93059Z" fill-rule="nonzero"/><path fill="#000000" fill-opacity="0.0" clip-path="url(#id_0)" d="M493.2875 253.98218C493.2875 255.63902 491.94437 256.98218 490.2875 256.98218C488.63065 256.98218 487.2875 255.63902 487.2875 253.98218C487.2875 252.32532 488.63065 250.98218 490.2875 250.98218C491.94437 250.98218 493.2875 252.32532 493.2875 253.98218Z" fill-rule="nonzero"/><path fill="#000000" fill-opacity="0.0" clip-path="url(#id_0)" d="M498.65 248.7883C498.65 250.44516 497.30685 251.7883 495.65 251.7883C493.99313 251.7883 492.65 250.44516 492.65 248.7883C492.65 247.13145 493.99313 245.7883 495.65 245.7883C497.30685 245.7883 498.65 247.13145 498.65 248.7883Z" fill-rule="nonzero"/><path fill="#000000" fill-opacity="0.0" clip-path="url(#id_0)" d="M504.0125 221.954C504.0125 223.61086 502.66934 224.954 501.0125 224.954C499.35565 224.954 498.0125 223.61086 498.0125 221.954C498.0125 220.29713 499.35565 218.954 501.0125 218.954C502.66934 218.954 504.0125 220.29713 504.0125 221.954Z" fill-rule="nonzero"/><path fill="#000000" fill-opacity="0.0" clip-path="url(#id_0)" d="M509.375 245.03377C509.375 246.69063 508.03186 248.03377 506.375 248.03377C504.71814 248.03377 503.375 246.69063 503.375 245.03377C503.375 243.3769 504.71814 242.03377 506.375 242.03377C508.03186 242.03377 509.375 243.3769 509.375 245.03377Z" fill-rule="nonzero"/><path fill="#000000" fill-opacity="0.0" clip-path="url(#id_0)" d="M514.7375 234.42987C514.7375 236.08673 513.39435 237.42987 511.7375 237.42987C510.08066 237.42987 508.7375 236.08673 508.7375 234.42987C508.7375 232.77301 510.08066 231.42987 511.7375 231.42987C513.39435 231.42987 514.7375 232.77301 514.7375 234.42987Z" fill-rule="nonzero"/><path fill="#000000" fill-opacity="0.0" clip-path="url(#id_0)" d="M520.1 202.02625C520.1 203.68309 518.75684 205.02625 517.1 205.02625C515.4431 205.02625 514.1 203.68309 514.1 202.02625C514.1 200.36938 515.4431 199.02625 517.1 199.02625C518.75684 199.02625 520.1 200.36938 520.1 202.02625Z" fill-rule="nonzero"/><path fill="#000000" fill-opacity="0.0" clip-path="url(#id_0)" d="M525.4625 228.20831C525.4625 229.86517 524.1194 231.20831 522.4625 231.20831C520.80566 231.20831 519.4625 229.86517 519.4625 228.20831C519.4625 226.55147 520.80566 225.20831 522.4625 225.20831C524.1194 225.20831 525.4625 226.55147 525.4625 228.20831Z" fill-rule="nonzero"/><path fill="#000000" fill-opacity="0.0" clip-path="url(#id_0)" d="M530.825 183.27196C530.825 184.9288 529.4819 186.27196 527.825 186.27196C526.16815 186.27196 524.825 184.9288 524.825 183.27196C524.825 181.6151 526.16815 180.27196 527.825 180.27196C529.4819 180.27196 530.825 181.6151 530.825 183.27196Z" fill-rule="nonzero"/><path fill="#000000" fill-opacity="0.0" clip-path="url(#id_0)" d="M536.1875 160.98076C536.1875 162.6376 534.84436 163.98076 533.1875 163.98076C531.53064 163.98076 530.1875 162.6376 530.1875 160.98076C530.1875 159.3239 531.53064 157.98076 533.1875 157.98076C534.84436 157.98076 536.1875 159.3239 536.1875 160.98076Z" fill-rule="nonzero"/><path fill="#000000" fill-opacity="0.0" clip-path="url(#id_0)" d="M541.55 180.66989C541.55 182.32674 540.20685 183.66989 538.55 183.66989C536.8931 183.66989 535.55 182.32674 535.55 180.66989C535.55 179.01303 536.8931 177.66989 538.55 177.66989C540.20685 177.66989 541.55 179.01303 541.55 180.66989Z" fill-rule="nonzero"/><path fill="#000000" fill-opacity="0.0" clip-path="url(#id_0)" d="M546.9125 166.54126C546.9125 168.1981 545.56934 169.54126 543.9125 169.54126C542.2556 169.54126 540.9125 168.1981 540.9125 166.54126C540.9125 164.8844 542.2556 163.54126 543.9125 163.54126C545.56934 163.54126 546.9125 164.8844 546.9125 166.54126Z" fill-rule="nonzero"/><path fill="#000000" fill-opacity="0.0" clip-path="url(#id_0)" d="M552.275 90.664894C552.275 92.32175 550.9319 93.664894 549.275 93.664894C547.61816 93.664894 546.275 92.32175 546.275 90.664894C546.275 89.00804 547.61816 87.664894 549.275 87.664894C550.9319 87.664894 552.275 89.00804 552.275 90.664894Z" fill-rule="nonzero"/><path fill="#000000" fill-opacity="0.0" clip-path="url(#id_0)" d="M557.6375 293.89514C557.6375 295.552 556.2944 296.89514 554.6375 296.89514C552.98065 296.89514 551.6375 295.552 551.6375 293.89514C551.6375 292.23828 552.98065 290.89514 554.6375 290.89514C556.2944 290.89514 557.6375 292.23828 557.6375 293.89514Z" fill-rule="nonzero"/><path fill="#000000" fill-opacity="0.0" clip-path="url(#id_0)" d="M563.0 261.36646C563.0 263.0233 561.65686 264.36646 560.0 264.36646C558.34314 264.36646 557.0 263.0233 557.0 261.36646C557.0 259.7096 558.34314 258.36646 560.0 258.36646C561.65686 258.36646 563.0 259.7096 563.0 261.36646Z" fill-rule="nonzero"/><path fill="#000000" fill-opacity="0.0" clip-path="url(#id_0)" d="M568.3625 245.47052C568.3625 247.12737 567.01935 248.47052 565.3625 248.47052C563.7056 248.47052 562.3625 247.12737 562.3625 245.47052C562.3625 243.81366 563.7056 242.47052 565.3625 242.47052C567.01935 242.47052 568.3625 243.81366 568.3625 245.47052Z" fill-rule="nonzero"/><path fill="#000000" fill-opacity="0.0" clip-path="url(#id_0)" d="M573.725 237.18793C573.725 238.84479 572.38184 240.18793 570.725 240.18793C569.0681 240.18793 567.725 238.84479 567.725 237.18793C567.725 235.53107 569.0681 234.18793 570.725 234.18793C572.38184 234.18793 573.725 235.53107 573.725 237.18793Z" fill-rule="nonzero"/><path fill="#000000" fill-opacity="0.0" clip-path="url(#id_0)" d="M579.0875 208.46584C579.0875 210.1227 577.7444 211.46584 576.0875 211.46584C574.43066 211.46584 573.0875 210.1227 573.0875 208.46584C573.0875 206.80899 574.43066 205.46584 576.0875 205.46584C577.7444 205.46584 579.0875 206.80899 579.0875 208.46584Z" fill-rule="nonzero"/><path fill="#000000" fill-opacity="0.0" clip-path="url(#id_0)" d="M584.45 245.74347C584.45 247.40031 583.1069 248.74347 581.45 248.74347C579.79315 248.74347 578.45 247.40031 578.45 245.74347C578.45 244.08661 579.79315 242.74347 581.45 242.74347C583.1069 242.74347 584.45 244.08661 584.45 245.74347Z" fill-rule="nonzero"/><path fill="#000000" d="M319.4375 349.45L319.4375 340.85626L323.25 340.85626Q324.40625 340.85626 325.0 341.09064Q325.59375 341.325 325.95312 341.91876Q326.3125 342.4969 326.3125 343.2Q326.3125 344.1219 325.71875 344.7469Q325.125 345.3719 323.89062 345.54376Q324.34375 345.7625 324.57812 345.96564Q325.07812 346.41876 325.51562 347.10626L327.01562 349.45L325.57812 349.45L324.45312 347.66876Q323.95312 346.8875 323.625 346.48126Q323.3125 346.075 323.04688 345.91876Q322.79688 345.7469 322.53125 345.66876Q322.34375 345.6375 321.90625 345.6375L320.57812 345.6375L320.57812 349.45L319.4375 349.45ZM320.57812 344.65314L323.03125 344.65314Q323.79688 344.65314 324.23438 344.4969Q324.6875 344.325 324.90625 343.98126Q325.14062 343.6219 325.14062 343.2Q325.14062 342.59064 324.6875 342.2Q324.25 341.8094 323.29688 341.8094L320.57812 341.8094L320.57812 344.65314ZM332.54688 347.45L333.64062 347.575Q333.39062 348.52814 332.6875 349.0594Q331.98438 349.59064 330.90625 349.59064Q329.54688 349.59064 328.73438 348.7469Q327.9375 347.90314 327.9375 346.3875Q327.9375 344.825 328.75 343.96564Q329.5625 343.09064 330.84375 343.09064Q332.09375 343.09064 332.875 343.9344Q333.67188 344.77814 333.67188 346.325Q333.67188 346.41876 333.67188 346.60626L329.03125 346.60626Q329.09375 347.6375 329.60938 348.1844Q330.125 348.71564 330.90625 348.71564Q331.48438 348.71564 331.89062 348.41876Q332.3125 348.10626 332.54688 347.45ZM329.09375 345.7469L332.5625 345.7469Q332.5 344.95 332.17188 344.5594Q331.65625 343.95 330.85938 343.95Q330.125 343.95 329.625 344.4344Q329.14062 344.91876 329.09375 345.7469ZM335.26562 349.45L335.26562 340.85626L336.32812 340.85626L336.32812 349.45L335.26562 349.45ZM342.54688 347.45L343.64062 347.575Q343.39062 348.52814 342.6875 349.0594Q341.98438 349.59064 340.90625 349.59064Q339.54688 349.59064 338.73438 348.7469Q337.9375 347.90314 337.9375 346.3875Q337.9375 344.825 338.75 343.96564Q339.5625 343.09064 340.84375 343.09064Q342.09375 343.09064 342.875 343.9344Q343.67188 344.77814 343.67188 346.325Q343.67188 346.41876 343.67188 346.60626L339.03125 346.60626Q339.09375 347.6375 339.60938 348.1844Q340.125 348.71564 340.90625 348.71564Q341.48438 348.71564 341.89062 348.41876Q342.3125 348.10626 342.54688 347.45ZM339.09375 345.7469L342.5625 345.7469Q342.5 344.95 342.17188 344.5594Q341.65625 343.95 340.85938 343.95Q340.125 343.95 339.625 344.4344Q339.14062 344.91876 339.09375 345.7469ZM349.35938 348.6844Q348.76562 349.1844 348.21875 349.3875Q347.6875 349.59064 347.0625 349.59064Q346.03125 349.59064 345.48438 349.09064Q344.9375 348.59064 344.9375 347.8094Q344.9375 347.35626 345.14062 346.98126Q345.34375 346.59064 345.6875 346.3719Q346.03125 346.1375 346.45312 346.02814Q346.75 345.9344 347.39062 345.85626Q348.65625 345.71564 349.26562 345.4969Q349.26562 345.27814 349.26562 345.23126Q349.26562 344.575 348.96875 344.3094Q348.5625 343.96564 347.76562 343.96564Q347.03125 343.96564 346.67188 344.23126Q346.3125 344.48126 346.14062 345.1375L345.10938 344.9969Q345.25 344.34064 345.57812 343.9344Q345.90625 343.52814 346.51562 343.3094Q347.125 343.09064 347.92188 343.09064Q348.71875 343.09064 349.21875 343.27814Q349.71875 343.46564 349.95312 343.7469Q350.1875 344.02814 350.28125 344.46564Q350.32812 344.73126 350.32812 345.4344L350.32812 346.84064Q350.32812 348.3094 350.39062 348.7Q350.46875 349.09064 350.67188 349.45L349.5625 349.45Q349.40625 349.1219 349.35938 348.6844ZM349.26562 346.325Q348.6875 346.5594 347.54688 346.73126Q346.89062 346.825 346.625 346.95Q346.35938 347.0594 346.20312 347.27814Q346.0625 347.4969 346.0625 347.77814Q346.0625 348.2 346.375 348.48126Q346.70312 348.7625 347.3125 348.7625Q347.92188 348.7625 348.39062 348.4969Q348.875 348.23126 349.09375 347.7625Q349.26562 347.40314 349.26562 346.71564L349.26562 346.325ZM351.875 347.59064L352.90625 347.4344Q353.0 348.0594 353.39062 348.3875Q353.79688 348.71564 354.53125 348.71564Q355.25 348.71564 355.59375 348.4344Q355.95312 348.1375 355.95312 347.73126Q355.95312 347.3719 355.64062 347.16876Q355.42188 347.02814 354.5625 346.8094Q353.40625 346.5125 352.95312 346.3094Q352.51562 346.09064 352.28125 345.71564Q352.04688 345.34064 352.04688 344.8719Q352.04688 344.46564 352.23438 344.10626Q352.42188 343.7469 352.75 343.5125Q353.0 343.34064 353.42188 343.21564Q353.84375 343.09064 354.34375 343.09064Q355.0625 343.09064 355.60938 343.3094Q356.17188 343.5125 356.4375 343.8719Q356.70312 344.23126 356.79688 344.825L355.76562 344.96564Q355.70312 344.4969 355.35938 344.23126Q355.03125 343.95 354.40625 343.95Q353.6875 343.95 353.375 344.2Q353.0625 344.4344 353.0625 344.7625Q353.0625 344.96564 353.1875 345.1219Q353.32812 345.29376 353.59375 345.40314Q353.75 345.46564 354.53125 345.66876Q355.65625 345.98126 356.09375 346.16876Q356.53125 346.35626 356.78125 346.71564Q357.03125 347.075 357.03125 347.6219Q357.03125 348.15314 356.71875 348.6219Q356.42188 349.075 355.84375 349.34064Q355.26562 349.59064 354.53125 349.59064Q353.3125 349.59064 352.67188 349.09064Q352.04688 348.575 351.875 347.59064ZM363.54688 347.45L364.64062 347.575Q364.39062 348.52814 363.6875 349.0594Q362.98438 349.59064 361.90625 349.59064Q360.54688 349.59064 359.73438 348.7469Q358.9375 347.90314 358.9375 346.3875Q358.9375 344.825 359.75 343.96564Q360.5625 343.09064 361.84375 343.09064Q363.09375 343.09064 363.875 343.9344Q364.67188 344.77814 364.67188 346.325Q364.67188 346.41876 364.67188 346.60626L360.03125 346.60626Q360.09375 347.6375 360.60938 348.1844Q361.125 348.71564 361.90625 348.71564Q362.48438 348.71564 362.89062 348.41876Q363.3125 348.10626 363.54688 347.45ZM360.09375 345.7469L363.5625 345.7469Q363.5 344.95 363.17188 344.5594Q362.65625 343.95 361.85938 343.95Q361.125 343.95 360.625 344.4344Q360.14062 344.91876 360.09375 345.7469ZM370.32812 349.45L370.32812 348.66876Q369.73438 349.59064 368.59375 349.59064Q367.84375 349.59064 367.21875 349.1844Q366.59375 348.7625 366.25 348.02814Q365.90625 347.29376 365.90625 346.34064Q365.90625 345.41876 366.21875 344.65314Q366.53125 343.8875 367.15625 343.4969Q367.78125 343.09064 368.54688 343.09064Q369.10938 343.09064 369.54688 343.325Q369.98438 343.5594 370.26562 343.9344L370.26562 340.85626L371.3125 340.85626L371.3125 349.45L370.32812 349.45ZM367.0 346.34064Q367.0 347.54376 367.5 348.1375Q368.0 348.71564 368.6875 348.71564Q369.375 348.71564 369.85938 348.15314Q370.34375 347.59064 370.34375 346.4344Q370.34375 345.15314 369.84375 344.5594Q369.35938 343.96564 368.64062 343.96564Q367.9375 343.96564 367.46875 344.54376Q367.0 345.10626 367.0 346.34064Z" fill-rule="nonzero"/><path fill="#000000" d="M26.784388 208.63646L26.690638 207.57396Q27.346888 207.49583 27.753138 207.21458Q28.159388 206.93333 28.425013 206.35521Q28.675013 205.76146 28.675013 205.02708Q28.675013 204.38646 28.487513 203.88646Q28.284388 203.38646 27.956263 203.15208Q27.612513 202.90208 27.221888 202.90208Q26.815638 202.90208 26.518763 203.13646Q26.206263 203.37083 26.003138 203.90208Q25.862513 204.26146 25.581263 205.44896Q25.300013 206.62083 25.050013 207.08958Q24.721888 207.71458 24.253138 208.01146Q23.768763 208.30833 23.175013 208.30833Q22.534388 208.30833 21.971888 207.94896Q21.393763 207.57396 21.112513 206.87083Q20.815638 206.15208 20.815638 205.29271Q20.815638 204.33958 21.128138 203.60521Q21.425013 202.87083 22.034388 202.48021Q22.628138 202.08958 23.378138 202.05833L23.456263 203.15208Q22.643763 203.24583 22.237513 203.76146Q21.815638 204.26146 21.815638 205.24583Q21.815638 206.27708 22.190638 206.74583Q22.565638 207.21458 23.096888 207.21458Q23.565638 207.21458 23.862513 206.88646Q24.159388 206.55833 24.471888 205.18333Q24.784388 203.79271 25.018763 203.27708Q25.378138 202.52708 25.909388 202.16771Q26.425013 201.80833 27.128138 201.80833Q27.815638 201.80833 28.425013 202.19896Q29.018763 202.58958 29.362513 203.32396Q29.690638 204.05833 29.690638 204.98021Q29.690638 206.15208 29.362513 206.94896Q29.018763 207.73021 28.331263 208.18333Q27.643763 208.62083 26.784388 208.63646ZM20.956263 194.62083L20.956263 193.48021L25.925013 193.48021Q27.221888 193.48021 27.987513 193.77708Q28.737513 194.07396 29.221888 194.83958Q29.690638 195.60521 29.690638 196.83958Q29.690638 198.04271 29.284388 198.82396Q28.862513 199.58958 28.081263 199.91771Q27.284388 200.24583 25.925013 200.24583L20.956263 200.24583L20.956263 199.10521L25.909388 199.10521Q27.034388 199.10521 27.565638 198.90208Q28.096888 198.68333 28.393763 198.18333Q28.675013 197.66771 28.675013 196.93333Q28.675013 195.68333 28.112513 195.15208Q27.534388 194.62083 25.909388 194.62083L20.956263 194.62083ZM29.550013 191.29271L20.956263 191.29271L20.956263 189.57396L27.034388 187.54271Q27.893763 187.26146 28.315638 187.13646Q27.846888 186.99583 26.940638 186.68333L20.956263 184.62083L20.956263 183.08958L29.550013 183.08958L29.550013 184.18333L22.362513 184.18333L29.550013 186.68333L29.550013 187.71458L22.237513 190.19896L29.550013 190.19896L29.550013 191.29271ZM29.550013 175.35521L28.768763 175.35521Q29.690638 175.94896 29.690638 177.08958Q29.690638 177.83958 29.284388 178.46458Q28.862513 179.08958 28.128138 179.43333Q27.393763 179.77708 26.440638 179.77708Q25.518763 179.77708 24.753138 179.46458Q23.987513 179.15208 23.596888 178.52708Q23.190638 177.90208 23.190638 177.13646Q23.190638 176.57396 23.425013 176.13646Q23.659388 175.69896 24.034388 175.41771L20.956263 175.41771L20.956263 174.37083L29.550013 174.37083L29.550013 175.35521ZM26.440638 178.68333Q27.643763 178.68333 28.237513 178.18333Q28.815638 177.68333 28.815638 176.99583Q28.815638 176.30833 28.253138 175.82396Q27.690638 175.33958 26.534388 175.33958Q25.253138 175.33958 24.659388 175.83958Q24.065638 176.32396 24.065638 177.04271Q24.065638 177.74583 24.643763 178.21458Q25.206263 178.68333 26.440638 178.68333ZM27.550013 168.13646L27.675013 167.04271Q28.628138 167.29271 29.159388 167.99583Q29.690638 168.69896 29.690638 169.77708Q29.690638 171.13646 28.846888 171.94896Q28.003138 172.74583 26.487513 172.74583Q24.925013 172.74583 24.065638 171.93333Q23.190638 171.12083 23.190638 169.83958Q23.190638 168.58958 24.034388 167.80833Q24.878138 167.01146 26.425013 167.01146Q26.518763 167.01146 26.706263 167.01146L26.706263 171.65208Q27.737513 171.58958 28.284388 171.07396Q28.815638 170.55833 28.815638 169.77708Q28.815638 169.19896 28.518763 168.79271Q28.206263 168.37083 27.550013 168.13646ZM25.846888 171.58958L25.846888 168.12083Q25.050013 168.18333 24.659388 168.51146Q24.050013 169.02708 24.050013 169.82396Q24.050013 170.55833 24.534388 171.05833Q25.018763 171.54271 25.846888 171.58958Z" fill-rule="nonzero"/><path fill="#000000" d="M97.05 300.21564Q97.05 298.6844 97.3625 297.7625Q97.675 296.825 98.28438 296.325Q98.90938 295.825 99.84688 295.825Q100.53438 295.825 101.05 296.10626Q101.58125 296.3875 101.925 296.91876Q102.26875 297.4344 102.45625 298.1844Q102.64375 298.9344 102.64375 300.21564Q102.64375 301.73126 102.33125 302.65314Q102.03438 303.575 101.40938 304.09064Q100.8 304.59064 99.84688 304.59064Q98.6125 304.59064 97.89375 303.7Q97.05 302.6375 97.05 300.21564ZM98.12813 300.21564Q98.12813 302.325 98.62813 303.02814Q99.12813 303.73126 99.84688 303.73126Q100.58125 303.73126 101.06563 303.02814Q101.56563 302.325 101.56563 300.21564Q101.56563 298.09064 101.06563 297.40314Q100.58125 296.7 99.83125 296.7Q99.1125 296.7 98.675 297.3094Q98.12813 298.09064 98.12813 300.21564Z" fill-rule="nonzero"/><path fill="#000000" d="M63.596874 255.72772L63.596874 256.74335L57.909374 256.74335Q57.909374 256.36835 58.034374 256.00897Q58.253124 255.43085 58.721874 254.86835Q59.20625 254.30585 60.1125 253.57147Q61.51875 252.41522 62.003124 251.74335Q62.503124 251.07147 62.503124 250.47772Q62.503124 249.85272 62.05 249.43085Q61.596874 248.99335 60.878124 248.99335Q60.1125 248.99335 59.659374 249.44647Q59.20625 249.8996 59.190624 250.7121L58.1125 250.60272Q58.221874 249.38397 58.940624 248.75897Q59.675 248.11835 60.909374 248.11835Q62.14375 248.11835 62.8625 248.80585Q63.58125 249.49335 63.58125 250.50897Q63.58125 251.0246 63.3625 251.5246Q63.159374 252.00897 62.659374 252.57147Q62.175 253.11835 61.05 254.07147Q60.096874 254.86835 59.815624 255.16522Q59.55 255.44647 59.378124 255.72772L63.596874 255.72772ZM65.6125 256.74335L65.6125 255.54022L66.81563 255.54022L66.81563 256.74335Q66.81563 257.3996 66.58125 257.80585Q66.34688 258.22772 65.84688 258.44647L65.55 257.99335Q65.87813 257.85272 66.03438 257.55585Q66.19063 257.2746 66.22188 256.74335L65.6125 256.74335ZM68.05 254.49335L69.15938 254.3996Q69.28438 255.2121 69.72188 255.61835Q70.175 256.0246 70.81563 256.0246Q71.56563 256.0246 72.09688 255.44647Q72.62813 254.86835 72.62813 253.93085Q72.62813 253.0246 72.1125 252.50897Q71.6125 251.97772 70.78438 251.97772Q70.28438 251.97772 69.8625 252.2121Q69.45625 252.44647 69.22188 252.80585L68.2375 252.68085L69.06563 248.2746L73.34688 248.2746L73.34688 249.2746L69.90938 249.2746L69.45625 251.5871Q70.22188 251.04022 71.06563 251.04022Q72.19063 251.04022 72.95625 251.82147Q73.7375 252.60272 73.7375 253.8371Q73.7375 254.99335 73.06563 255.85272Q72.2375 256.88397 70.81563 256.88397Q69.64375 256.88397 68.89375 256.22772Q68.15938 255.57147 68.05 254.49335ZM75.05 252.50897Q75.05 250.97772 75.3625 250.05585Q75.675 249.11835 76.28438 248.61835Q76.90938 248.11835 77.84688 248.11835Q78.53438 248.11835 79.05 248.3996Q79.58125 248.68085 79.925 249.2121Q80.26875 249.72772 80.45625 250.47772Q80.64375 251.22772 80.64375 252.50897Q80.64375 254.0246 80.33125 254.94647Q80.03438 255.86835 79.40938 256.38397Q78.8 256.88397 77.84688 256.88397Q76.6125 256.88397 75.89375 255.99335Q75.05 254.93085 75.05 252.50897ZM76.12813 252.50897Q76.12813 254.61835 76.62813 255.32147Q77.12813 256.0246 77.84688 256.0246Q78.58125 256.0246 79.06563 255.32147Q79.56563 254.61835 79.56563 252.50897Q79.56563 250.38397 79.06563 249.69647Q78.58125 248.99335 77.83125 248.99335Q77.1125 248.99335 76.675 249.60272Q76.12813 250.38397 76.12813 252.50897ZM82.50313 256.74335L82.50313 248.1496L88.70625 248.1496L88.70625 249.16522L83.64375 249.16522L83.64375 251.79022L88.39375 251.79022L88.39375 252.80585L83.64375 252.80585L83.64375 255.72772L88.90938 255.72772L88.90938 256.74335L82.50313 256.74335ZM92.55 255.35272L92.55 252.99335L90.22188 252.99335L90.22188 252.00897L92.55 252.00897L92.55 249.68085L93.55 249.68085L93.55 252.00897L95.89375 252.00897L95.89375 252.99335L93.55 252.99335L93.55 255.35272L92.55 255.35272ZM97.20625 254.75897L98.22188 254.66522Q98.34688 255.38397 98.70625 255.7121Q99.08125 256.0246 99.64375 256.0246Q100.12813 256.0246 100.4875 255.80585Q100.8625 255.57147 101.09688 255.2121Q101.33125 254.8371 101.4875 254.2121Q101.64375 253.57147 101.64375 252.91522Q101.64375 252.8371 101.64375 252.69647Q101.33125 253.19647 100.78438 253.5246Q100.2375 253.8371 99.59688 253.8371Q98.51875 253.8371 97.78438 253.07147Q97.05 252.29022 97.05 251.0246Q97.05 249.7121 97.81563 248.91522Q98.59688 248.11835 99.75313 248.11835Q100.58125 248.11835 101.26875 248.57147Q101.97188 249.0246 102.33125 249.86835Q102.69063 250.69647 102.69063 252.2746Q102.69063 253.91522 102.33125 254.8996Q101.9875 255.86835 101.26875 256.38397Q100.56563 256.88397 99.62813 256.88397Q98.6125 256.88397 97.97188 256.3371Q97.33125 255.7746 97.20625 254.75897ZM101.51875 250.9621Q101.51875 250.05585 101.03438 249.5246Q100.56563 248.99335 99.87813 248.99335Q99.175 248.99335 98.64375 249.57147Q98.12813 250.13397 98.12813 251.05585Q98.12813 251.86835 98.62813 252.38397Q99.12813 252.8996 99.84688 252.8996Q100.58125 252.8996 101.05 252.38397Q101.51875 251.86835 101.51875 250.9621Z" fill-rule="nonzero"/><path fill="#000000" d="M58.05 206.78667L59.159374 206.69292Q59.284374 207.50542 59.721874 207.91167Q60.175 208.31792 60.815624 208.31792Q61.565624 208.31792 62.096874 207.73979Q62.628124 207.16167 62.628124 206.22417Q62.628124 205.31792 62.1125 204.80229Q61.6125 204.27104 60.784374 204.27104Q60.284374 204.27104 59.8625 204.50542Q59.45625 204.73979 59.221874 205.09917L58.2375 204.97417L59.065624 200.56792L63.346874 200.56792L63.346874 201.56792L59.909374 201.56792L59.45625 203.88042Q60.221874 203.33354 61.065624 203.33354Q62.190624 203.33354 62.95625 204.11479Q63.7375 204.89604 63.7375 206.13042Q63.7375 207.28667 63.065624 208.14604Q62.2375 209.17729 60.815624 209.17729Q59.64375 209.17729 58.89375 208.52104Q58.159374 207.86479 58.05 206.78667ZM65.6125 209.03667L65.6125 207.83354L66.81563 207.83354L66.81563 209.03667Q66.81563 209.69292 66.58125 210.09917Q66.34688 210.52104 65.84688 210.73979L65.55 210.28667Q65.87813 210.14604 66.03438 209.84917Q66.19063 209.56792 66.22188 209.03667L65.6125 209.03667ZM68.05 204.80229Q68.05 203.27104 68.3625 202.34917Q68.675 201.41167 69.28438 200.91167Q69.90938 200.41167 70.84688 200.41167Q71.53438 200.41167 72.05 200.69292Q72.58125 200.97417 72.925 201.50542Q73.26875 202.02104 73.45625 202.77104Q73.64375 203.52104 73.64375 204.80229Q73.64375 206.31792 73.33125 207.23979Q73.03438 208.16167 72.40938 208.67729Q71.8 209.17729 70.84688 209.17729Q69.6125 209.17729 68.89375 208.28667Q68.05 207.22417 68.05 204.80229ZM69.12813 204.80229Q69.12813 206.91167 69.62813 207.61479Q70.12813 208.31792 70.84688 208.31792Q71.58125 208.31792 72.06563 207.61479Q72.56563 206.91167 72.56563 204.80229Q72.56563 202.67729 72.06563 201.98979Q71.58125 201.28667 70.83125 201.28667Q70.1125 201.28667 69.675 201.89604Q69.12813 202.67729 69.12813 204.80229ZM75.05 204.80229Q75.05 203.27104 75.3625 202.34917Q75.675 201.41167 76.28438 200.91167Q76.90938 200.41167 77.84688 200.41167Q78.53438 200.41167 79.05 200.69292Q79.58125 200.97417 79.925 201.50542Q80.26875 202.02104 80.45625 202.77104Q80.64375 203.52104 80.64375 204.80229Q80.64375 206.31792 80.33125 207.23979Q80.03438 208.16167 79.40938 208.67729Q78.8 209.17729 77.84688 209.17729Q76.6125 209.17729 75.89375 208.28667Q75.05 207.22417 75.05 204.80229ZM76.12813 204.80229Q76.12813 206.91167 76.62813 207.61479Q77.12813 208.31792 77.84688 208.31792Q78.58125 208.31792 79.06563 207.61479Q79.56563 206.91167 79.56563 204.80229Q79.56563 202.67729 79.06563 201.98979Q78.58125 201.28667 77.83125 201.28667Q77.1125 201.28667 76.675 201.89604Q76.12813 202.67729 76.12813 204.80229ZM82.50313 209.03667L82.50313 200.44292L88.70625 200.44292L88.70625 201.45854L83.64375 201.45854L83.64375 204.08354L88.39375 204.08354L88.39375 205.09917L83.64375 205.09917L83.64375 208.02104L88.90938 208.02104L88.90938 209.03667L82.50313 209.03667ZM92.55 207.64604L92.55 205.28667L90.22188 205.28667L90.22188 204.30229L92.55 204.30229L92.55 201.97417L93.55 201.97417L93.55 204.30229L95.89375 204.30229L95.89375 205.28667L93.55 205.28667L93.55 207.64604L92.55 207.64604ZM97.20625 207.05229L98.22188 206.95854Q98.34688 207.67729 98.70625 208.00542Q99.08125 208.31792 99.64375 208.31792Q100.12813 208.31792 100.4875 208.09917Q100.8625 207.86479 101.09688 207.50542Q101.33125 207.13042 101.4875 206.50542Q101.64375 205.86479 101.64375 205.20854Q101.64375 205.13042 101.64375 204.98979Q101.33125 205.48979 100.78438 205.81792Q100.2375 206.13042 99.59688 206.13042Q98.51875 206.13042 97.78438 205.36479Q97.05 204.58354 97.05 203.31792Q97.05 202.00542 97.81563 201.20854Q98.59688 200.41167 99.75313 200.41167Q100.58125 200.41167 101.26875 200.86479Q101.97188 201.31792 102.33125 202.16167Q102.69063 202.98979 102.69063 204.56792Q102.69063 206.20854 102.33125 207.19292Q101.9875 208.16167 101.26875 208.67729Q100.56563 209.17729 99.62813 209.17729Q98.6125 209.17729 97.97188 208.63042Q97.33125 208.06792 97.20625 207.05229ZM101.51875 203.25542Q101.51875 202.34917 101.03438 201.81792Q100.56563 201.28667 99.87813 201.28667Q99.175 201.28667 98.64375 201.86479Q98.12813 202.42729 98.12813 203.34917Q98.12813 204.16167 98.62813 204.67729Q99.12813 205.19292 99.84688 205.19292Q100.58125 205.19292 101.05 204.67729Q101.51875 204.16167 101.51875 203.25542Z" fill-rule="nonzero"/><path fill="#000000" d="M58.1125 153.86125L58.1125 152.84563L63.675 152.84563L63.675 153.67375Q62.8625 154.54875 62.05 156.00188Q61.253124 157.43938 60.815624 158.97063Q60.4875 160.04875 60.409374 161.33L59.315624 161.33Q59.33125 160.31438 59.70625 158.87688Q60.096874 157.43938 60.8 156.11125Q61.51875 154.78313 62.33125 153.86125L58.1125 153.86125ZM65.6125 161.33L65.6125 160.12688L66.81563 160.12688L66.81563 161.33Q66.81563 161.98625 66.58125 162.3925Q66.34688 162.81438 65.84688 163.03313L65.55 162.58Q65.87813 162.43938 66.03438 162.1425Q66.19063 161.86125 66.22188 161.33L65.6125 161.33ZM68.05 159.08L69.15938 158.98625Q69.28438 159.79875 69.72188 160.205Q70.175 160.61125 70.81563 160.61125Q71.56563 160.61125 72.09688 160.03313Q72.62813 159.455 72.62813 158.5175Q72.62813 157.61125 72.1125 157.09563Q71.6125 156.56438 70.78438 156.56438Q70.28438 156.56438 69.8625 156.79875Q69.45625 157.03313 69.22188 157.3925L68.2375 157.2675L69.06563 152.86125L73.34688 152.86125L73.34688 153.86125L69.90938 153.86125L69.45625 156.17375Q70.22188 155.62688 71.06563 155.62688Q72.19063 155.62688 72.95625 156.40813Q73.7375 157.18938 73.7375 158.42375Q73.7375 159.58 73.06563 160.43938Q72.2375 161.47063 70.81563 161.47063Q69.64375 161.47063 68.89375 160.81438Q68.15938 160.15813 68.05 159.08ZM75.05 157.09563Q75.05 155.56438 75.3625 154.6425Q75.675 153.705 76.28438 153.205Q76.90938 152.705 77.84688 152.705Q78.53438 152.705 79.05 152.98625Q79.58125 153.2675 79.925 153.79875Q80.26875 154.31438 80.45625 155.06438Q80.64375 155.81438 80.64375 157.09563Q80.64375 158.61125 80.33125 159.53313Q80.03438 160.455 79.40938 160.97063Q78.8 161.47063 77.84688 161.47063Q76.6125 161.47063 75.89375 160.58Q75.05 159.5175 75.05 157.09563ZM76.12813 157.09563Q76.12813 159.205 76.62813 159.90813Q77.12813 160.61125 77.84688 160.61125Q78.58125 160.61125 79.06563 159.90813Q79.56563 159.205 79.56563 157.09563Q79.56563 154.97063 79.06563 154.28313Q78.58125 153.58 77.83125 153.58Q77.1125 153.58 76.675 154.18938Q76.12813 154.97063 76.12813 157.09563ZM82.50313 161.33L82.50313 152.73625L88.70625 152.73625L88.70625 153.75188L83.64375 153.75188L83.64375 156.37688L88.39375 156.37688L88.39375 157.3925L83.64375 157.3925L83.64375 160.31438L88.90938 160.31438L88.90938 161.33L82.50313 161.33ZM92.55 159.93938L92.55 157.58L90.22188 157.58L90.22188 156.59563L92.55 156.59563L92.55 154.2675L93.55 154.2675L93.55 156.59563L95.89375 156.59563L95.89375 157.58L93.55 157.58L93.55 159.93938L92.55 159.93938ZM97.20625 159.34563L98.22188 159.25188Q98.34688 159.97063 98.70625 160.29875Q99.08125 160.61125 99.64375 160.61125Q100.12813 160.61125 100.4875 160.3925Q100.8625 160.15813 101.09688 159.79875Q101.33125 159.42375 101.4875 158.79875Q101.64375 158.15813 101.64375 157.50188Q101.64375 157.42375 101.64375 157.28313Q101.33125 157.78313 100.78438 158.11125Q100.2375 158.42375 99.59688 158.42375Q98.51875 158.42375 97.78438 157.65813Q97.05 156.87688 97.05 155.61125Q97.05 154.29875 97.81563 153.50188Q98.59688 152.705 99.75313 152.705Q100.58125 152.705 101.26875 153.15813Q101.97188 153.61125 102.33125 154.455Q102.69063 155.28313 102.69063 156.86125Q102.69063 158.50188 102.33125 159.48625Q101.9875 160.455 101.26875 160.97063Q100.56563 161.47063 99.62813 161.47063Q98.6125 161.47063 97.97188 160.92375Q97.33125 160.36125 97.20625 159.34563ZM101.51875 155.54875Q101.51875 154.6425 101.03438 154.11125Q100.56563 153.58 99.87813 153.58Q99.175 153.58 98.64375 154.15813Q98.12813 154.72063 98.12813 155.6425Q98.12813 156.455 98.62813 156.97063Q99.12813 157.48625 99.84688 157.48625Q100.58125 157.48625 101.05 156.97063Q101.51875 156.455 101.51875 155.54875Z" fill-rule="nonzero"/><path fill="#000000" d="M55.01875 113.62334L53.971874 113.62334L53.971874 106.90459Q53.58125 107.26396 52.95625 107.63896Q52.346874 107.99834 51.8625 108.17021L51.8625 107.15459Q52.7375 106.73271 53.39375 106.15459Q54.065624 105.56084 54.346874 104.99834L55.01875 104.99834L55.01875 113.62334ZM58.6125 113.62334L58.6125 112.42021L59.815624 112.42021L59.815624 113.62334Q59.815624 114.27959 59.58125 114.68584Q59.346874 115.10771 58.846874 115.32646L58.55 114.87334Q58.878124 114.73271 59.034374 114.43584Q59.190624 114.15459 59.221874 113.62334L58.6125 113.62334ZM61.05 109.38896Q61.05 107.85771 61.3625 106.93584Q61.675 105.99834 62.284374 105.49834Q62.909374 104.99834 63.846874 104.99834Q64.53438 104.99834 65.05 105.27959Q65.58125 105.56084 65.925 106.09209Q66.26875 106.60771 66.45625 107.35771Q66.64375 108.10771 66.64375 109.38896Q66.64375 110.90459 66.33125 111.82646Q66.03438 112.74834 65.40938 113.26396Q64.8 113.76396 63.846874 113.76396Q62.6125 113.76396 61.89375 112.87334Q61.05 111.81084 61.05 109.38896ZM62.128124 109.38896Q62.128124 111.49834 62.628124 112.20146Q63.128124 112.90459 63.846874 112.90459Q64.58125 112.90459 65.06563 112.20146Q65.56563 111.49834 65.56563 109.38896Q65.56563 107.26396 65.06563 106.57646Q64.58125 105.87334 63.83125 105.87334Q63.1125 105.87334 62.675 106.48271Q62.128124 107.26396 62.128124 109.38896ZM68.05 109.38896Q68.05 107.85771 68.3625 106.93584Q68.675 105.99834 69.28438 105.49834Q69.90938 104.99834 70.84688 104.99834Q71.53438 104.99834 72.05 105.27959Q72.58125 105.56084 72.925 106.09209Q73.26875 106.60771 73.45625 107.35771Q73.64375 108.10771 73.64375 109.38896Q73.64375 110.90459 73.33125 111.82646Q73.03438 112.74834 72.40938 113.26396Q71.8 113.76396 70.84688 113.76396Q69.6125 113.76396 68.89375 112.87334Q68.05 111.81084 68.05 109.38896ZM69.12813 109.38896Q69.12813 111.49834 69.62813 112.20146Q70.12813 112.90459 70.84688 112.90459Q71.58125 112.90459 72.06563 112.20146Q72.56563 111.49834 72.56563 109.38896Q72.56563 107.26396 72.06563 106.57646Q71.58125 105.87334 70.83125 105.87334Q70.1125 105.87334 69.675 106.48271Q69.12813 107.26396 69.12813 109.38896ZM75.50313 113.62334L75.50313 105.02959L81.70625 105.02959L81.70625 106.04521L76.64375 106.04521L76.64375 108.67021L81.39375 108.67021L81.39375 109.68584L76.64375 109.68584L76.64375 112.60771L81.90938 112.60771L81.90938 113.62334L75.50313 113.62334ZM85.55 112.23271L85.55 109.87334L83.22188 109.87334L83.22188 108.88896L85.55 108.88896L85.55 106.56084L86.55 106.56084L86.55 108.88896L88.89375 108.88896L88.89375 109.87334L86.55 109.87334L86.55 112.23271L85.55 112.23271ZM94.01875 113.62334L92.97188 113.62334L92.97188 106.90459Q92.58125 107.26396 91.95625 107.63896Q91.34688 107.99834 90.8625 108.17021L90.8625 107.15459Q91.7375 106.73271 92.39375 106.15459Q93.06563 105.56084 93.34688 104.99834L94.01875 104.99834L94.01875 113.62334ZM97.05 109.38896Q97.05 107.85771 97.3625 106.93584Q97.675 105.99834 98.28438 105.49834Q98.90938 104.99834 99.84688 104.99834Q100.53438 104.99834 101.05 105.27959Q101.58125 105.56084 101.925 106.09209Q102.26875 106.60771 102.45625 107.35771Q102.64375 108.10771 102.64375 109.38896Q102.64375 110.90459 102.33125 111.82646Q102.03438 112.74834 101.40938 113.26396Q100.8 113.76396 99.84688 113.76396Q98.6125 113.76396 97.89375 112.87334Q97.05 111.81084 97.05 109.38896ZM98.12813 109.38896Q98.12813 111.49834 98.62813 112.20146Q99.12813 112.90459 99.84688 112.90459Q100.58125 112.90459 101.06563 112.20146Q101.56563 111.49834 101.56563 109.38896Q101.56563 107.26396 101.06563 106.57646Q100.58125 105.87334 99.83125 105.87334Q99.1125 105.87334 98.675 106.48271Q98.12813 107.26396 98.12813 109.38896Z" fill-rule="nonzero"/><path fill="#000000" d="M55.01875 65.916664L53.971874 65.916664L53.971874 59.197914Q53.58125 59.55729 52.95625 59.93229Q52.346874 60.291664 51.8625 60.46354L51.8625 59.447914Q52.7375 59.02604 53.39375 58.447914Q54.065624 57.854164 54.346874 57.291664L55.01875 57.291664L55.01875 65.916664ZM58.6125 65.916664L58.6125 64.71354L59.815624 64.71354L59.815624 65.916664Q59.815624 66.572914 59.58125 66.979164Q59.346874 67.40104 58.846874 67.61979L58.55 67.166664Q58.878124 67.02604 59.034374 66.729164Q59.190624 66.447914 59.221874 65.916664L58.6125 65.916664ZM66.59688 64.90104L66.59688 65.916664L60.909374 65.916664Q60.909374 65.541664 61.034374 65.18229Q61.253124 64.604164 61.721874 64.041664Q62.20625 63.479164 63.1125 62.74479Q64.51875 61.58854 65.00313 60.916664Q65.50313 60.24479 65.50313 59.65104Q65.50313 59.02604 65.05 58.604164Q64.59688 58.166664 63.878124 58.166664Q63.1125 58.166664 62.659374 58.61979Q62.20625 59.072914 62.190624 59.885414L61.1125 59.77604Q61.221874 58.55729 61.940624 57.93229Q62.675 57.291664 63.909374 57.291664Q65.14375 57.291664 65.8625 57.979164Q66.58125 58.666664 66.58125 59.68229Q66.58125 60.197914 66.3625 60.697914Q66.15938 61.18229 65.65938 61.74479Q65.175 62.291664 64.05 63.24479Q63.096874 64.041664 62.815624 64.33854Q62.55 64.61979 62.378124 64.90104L66.59688 64.90104ZM68.05 63.666664L69.15938 63.572914Q69.28438 64.385414 69.72188 64.791664Q70.175 65.197914 70.81563 65.197914Q71.56563 65.197914 72.09688 64.61979Q72.62813 64.041664 72.62813 63.104164Q72.62813 62.197914 72.1125 61.68229Q71.6125 61.15104 70.78438 61.15104Q70.28438 61.15104 69.8625 61.385414Q69.45625 61.61979 69.22188 61.979164L68.2375 61.854164L69.06563 57.447914L73.34688 57.447914L73.34688 58.447914L69.90938 58.447914L69.45625 60.760414Q70.22188 60.21354 71.06563 60.21354Q72.19063 60.21354 72.95625 60.99479Q73.7375 61.77604 73.7375 63.010414Q73.7375 64.166664 73.06563 65.02604Q72.2375 66.05729 70.81563 66.05729Q69.64375 66.05729 68.89375 65.40104Q68.15938 64.74479 68.05 63.666664ZM75.50313 65.916664L75.50313 57.322914L81.70625 57.322914L81.70625 58.33854L76.64375 58.33854L76.64375 60.96354L81.39375 60.96354L81.39375 61.979164L76.64375 61.979164L76.64375 64.90104L81.90938 64.90104L81.90938 65.916664L75.50313 65.916664ZM85.55 64.52604L85.55 62.166664L83.22188 62.166664L83.22188 61.18229L85.55 61.18229L85.55 58.854164L86.55 58.854164L86.55 61.18229L88.89375 61.18229L88.89375 62.166664L86.55 62.166664L86.55 64.52604L85.55 64.52604ZM94.01875 65.916664L92.97188 65.916664L92.97188 59.197914Q92.58125 59.55729 91.95625 59.93229Q91.34688 60.291664 90.8625 60.46354L90.8625 59.447914Q91.7375 59.02604 92.39375 58.447914Q93.06563 57.854164 93.34688 57.291664L94.01875 57.291664L94.01875 65.916664ZM97.05 61.68229Q97.05 60.15104 97.3625 59.229164Q97.675 58.291664 98.28438 57.791664Q98.90938 57.291664 99.84688 57.291664Q100.53438 57.291664 101.05 57.572914Q101.58125 57.854164 101.925 58.385414Q102.26875 58.90104 102.45625 59.65104Q102.64375 60.40104 102.64375 61.68229Q102.64375 63.197914 102.33125 64.11979Q102.03438 65.041664 101.40938 65.55729Q100.8 66.05729 99.84688 66.05729Q98.6125 66.05729 97.89375 65.166664Q97.05 64.104164 97.05 61.68229ZM98.12813 61.68229Q98.12813 63.791664 98.62813 64.49479Q99.12813 65.197914 99.84688 65.197914Q100.58125 65.197914 101.06563 64.49479Q101.56563 63.791664 101.56563 61.68229Q101.56563 59.55729 101.06563 58.86979Q100.58125 58.166664 99.83125 58.166664Q99.1125 58.166664 98.675 58.77604Q98.12813 59.55729 98.12813 61.68229Z" fill-rule="nonzero"/><path fill="#000000" d="M116.10625 317.45L115.05937 317.45L115.05937 310.73126Q114.66875 311.09064 114.04375 311.46564Q113.43437 311.825 112.95 311.9969L112.95 310.98126Q113.825 310.5594 114.48125 309.98126Q115.15312 309.3875 115.43437 308.825L116.10625 308.825L116.10625 317.45ZM119.29375 315.46564L120.30937 315.3719Q120.43437 316.09064 120.79375 316.41876Q121.16875 316.73126 121.73125 316.73126Q122.21562 316.73126 122.575 316.5125Q122.95 316.27814 123.18437 315.91876Q123.41875 315.54376 123.575 314.91876Q123.73125 314.27814 123.73125 313.6219Q123.73125 313.54376 123.73125 313.40314Q123.41875 313.90314 122.87187 314.23126Q122.325 314.54376 121.68437 314.54376Q120.60625 314.54376 119.87187 313.77814Q119.1375 312.9969 119.1375 311.73126Q119.1375 310.41876 119.90312 309.6219Q120.68437 308.825 121.84062 308.825Q122.66875 308.825 123.35625 309.27814Q124.05937 309.73126 124.41875 310.575Q124.77812 311.40314 124.77812 312.98126Q124.77812 314.6219 124.41875 315.60626Q124.075 316.575 123.35625 317.09064Q122.65312 317.59064 121.71562 317.59064Q120.7 317.59064 120.05937 317.04376Q119.41875 316.48126 119.29375 315.46564ZM123.60625 311.66876Q123.60625 310.7625 123.12187 310.23126Q122.65312 309.7 121.96562 309.7Q121.2625 309.7 120.73125 310.27814Q120.21562 310.84064 120.21562 311.7625Q120.21562 312.575 120.71562 313.09064Q121.21562 313.60626 121.93437 313.60626Q122.66875 313.60626 123.1375 313.09064Q123.60625 312.575 123.60625 311.66876ZM129.5125 317.45L129.5125 315.3875L125.79375 315.3875L125.79375 314.41876L129.71562 308.85626L130.575 308.85626L130.575 314.41876L131.73125 314.41876L131.73125 315.3875L130.575 315.3875L130.575 317.45L129.5125 317.45ZM129.5125 314.41876L129.5125 310.5594L126.825 314.41876L129.5125 314.41876ZM133.1375 313.21564Q133.1375 311.6844 133.45 310.7625Q133.7625 309.825 134.37187 309.325Q134.99687 308.825 135.93437 308.825Q136.62187 308.825 137.1375 309.10626Q137.66875 309.3875 138.0125 309.91876Q138.35625 310.4344 138.54375 311.1844Q138.73125 311.9344 138.73125 313.21564Q138.73125 314.73126 138.41875 315.65314Q138.12187 316.575 137.49687 317.09064Q136.8875 317.59064 135.93437 317.59064Q134.7 317.59064 133.98125 316.7Q133.1375 315.6375 133.1375 313.21564ZM134.21562 313.21564Q134.21562 315.325 134.71562 316.02814Q135.21562 316.73126 135.93437 316.73126Q136.66875 316.73126 137.15312 316.02814Q137.65312 315.325 137.65312 313.21564Q137.65312 311.09064 137.15312 310.40314Q136.66875 309.7 135.91875 309.7Q135.2 309.7 134.7625 310.3094Q134.21562 311.09064 134.21562 313.21564Z" fill-rule="nonzero"/><path fill="#000000" d="M223.35625 317.45L222.30937 317.45L222.30937 310.73126Q221.91875 311.09064 221.29375 311.46564Q220.68437 311.825 220.2 311.9969L220.2 310.98126Q221.075 310.5594 221.73125 309.98126Q222.40312 309.3875 222.68437 308.825L223.35625 308.825L223.35625 317.45ZM226.54375 315.46564L227.55937 315.3719Q227.68437 316.09064 228.04375 316.41876Q228.41875 316.73126 228.98125 316.73126Q229.46562 316.73126 229.825 316.5125Q230.2 316.27814 230.43437 315.91876Q230.66875 315.54376 230.825 314.91876Q230.98125 314.27814 230.98125 313.6219Q230.98125 313.54376 230.98125 313.40314Q230.66875 313.90314 230.12187 314.23126Q229.575 314.54376 228.93437 314.54376Q227.85625 314.54376 227.12187 313.77814Q226.3875 312.9969 226.3875 311.73126Q226.3875 310.41876 227.15312 309.6219Q227.93437 308.825 229.09062 308.825Q229.91875 308.825 230.60625 309.27814Q231.30937 309.73126 231.66875 310.575Q232.02812 311.40314 232.02812 312.98126Q232.02812 314.6219 231.66875 315.60626Q231.325 316.575 230.60625 317.09064Q229.90312 317.59064 228.96562 317.59064Q227.95 317.59064 227.30937 317.04376Q226.66875 316.48126 226.54375 315.46564ZM230.85625 311.66876Q230.85625 310.7625 230.37187 310.23126Q229.90312 309.7 229.21562 309.7Q228.5125 309.7 227.98125 310.27814Q227.46562 310.84064 227.46562 311.7625Q227.46562 312.575 227.96562 313.09064Q228.46562 313.60626 229.18437 313.60626Q229.91875 313.60626 230.3875 313.09064Q230.85625 312.575 230.85625 311.66876ZM238.85625 310.96564L237.80937 311.04376Q237.66875 310.41876 237.41875 310.1375Q236.98125 309.6844 236.35625 309.6844Q235.85625 309.6844 235.46562 309.96564Q234.98125 310.34064 234.68437 311.04376Q234.40312 311.73126 234.3875 313.0125Q234.7625 312.4344 235.30937 312.15314Q235.87187 311.8719 236.48125 311.8719Q237.52812 311.8719 238.2625 312.65314Q239.0125 313.4344 239.0125 314.65314Q239.0125 315.46564 238.65312 316.16876Q238.30937 316.85626 237.7 317.23126Q237.09062 317.59064 236.325 317.59064Q234.99687 317.59064 234.16875 316.6219Q233.34062 315.65314 233.34062 313.4344Q233.34062 310.9344 234.2625 309.8094Q235.05937 308.825 236.41875 308.825Q237.43437 308.825 238.075 309.40314Q238.73125 309.96564 238.85625 310.96564ZM234.55937 314.66876Q234.55937 315.21564 234.77812 315.71564Q235.0125 316.2 235.41875 316.46564Q235.84062 316.73126 236.30937 316.73126Q236.96562 316.73126 237.45 316.2Q237.93437 315.65314 237.93437 314.73126Q237.93437 313.84064 237.45 313.325Q236.98125 312.8094 236.2625 312.8094Q235.54375 312.8094 235.04375 313.325Q234.55937 313.84064 234.55937 314.66876ZM240.3875 313.21564Q240.3875 311.6844 240.7 310.7625Q241.0125 309.825 241.62187 309.325Q242.24687 308.825 243.18437 308.825Q243.87187 308.825 244.3875 309.10626Q244.91875 309.3875 245.2625 309.91876Q245.60625 310.4344 245.79375 311.1844Q245.98125 311.9344 245.98125 313.21564Q245.98125 314.73126 245.66875 315.65314Q245.37187 316.575 244.74687 317.09064Q244.1375 317.59064 243.18437 317.59064Q241.95 317.59064 241.23125 316.7Q240.3875 315.6375 240.3875 313.21564ZM241.46562 313.21564Q241.46562 315.325 241.96562 316.02814Q242.46562 316.73126 243.18437 316.73126Q243.91875 316.73126 244.40312 316.02814Q244.90312 315.325 244.90312 313.21564Q244.90312 311.09064 244.40312 310.40314Q243.91875 309.7 243.16875 309.7Q242.45 309.7 242.0125 310.3094Q241.46562 311.09064 241.46562 313.21564Z" fill-rule="nonzero"/><path fill="#000000" d="M330.60626 317.45L329.5594 317.45L329.5594 310.73126Q329.16876 311.09064 328.54376 311.46564Q327.9344 311.825 327.45 311.9969L327.45 310.98126Q328.325 310.5594 328.98126 309.98126Q329.65314 309.3875 329.9344 308.825L330.60626 308.825L330.60626 317.45ZM333.79376 315.46564L334.8094 315.3719Q334.9344 316.09064 335.29376 316.41876Q335.66876 316.73126 336.23126 316.73126Q336.71564 316.73126 337.075 316.5125Q337.45 316.27814 337.6844 315.91876Q337.91876 315.54376 338.075 314.91876Q338.23126 314.27814 338.23126 313.6219Q338.23126 313.54376 338.23126 313.40314Q337.91876 313.90314 337.3719 314.23126Q336.825 314.54376 336.1844 314.54376Q335.10626 314.54376 334.3719 313.77814Q333.6375 312.9969 333.6375 311.73126Q333.6375 310.41876 334.40314 309.6219Q335.1844 308.825 336.34064 308.825Q337.16876 308.825 337.85626 309.27814Q338.5594 309.73126 338.91876 310.575Q339.27814 311.40314 339.27814 312.98126Q339.27814 314.6219 338.91876 315.60626Q338.575 316.575 337.85626 317.09064Q337.15314 317.59064 336.21564 317.59064Q335.2 317.59064 334.5594 317.04376Q333.91876 316.48126 333.79376 315.46564ZM338.10626 311.66876Q338.10626 310.7625 337.6219 310.23126Q337.15314 309.7 336.46564 309.7Q335.7625 309.7 335.23126 310.27814Q334.71564 310.84064 334.71564 311.7625Q334.71564 312.575 335.21564 313.09064Q335.71564 313.60626 336.4344 313.60626Q337.16876 313.60626 337.6375 313.09064Q338.10626 312.575 338.10626 311.66876ZM342.2625 312.79376Q341.60626 312.54376 341.27814 312.10626Q340.96564 311.65314 340.96564 311.04376Q340.96564 310.10626 341.6375 309.46564Q342.325 308.825 343.4344 308.825Q344.5594 308.825 345.2469 309.48126Q345.9344 310.1375 345.9344 311.075Q345.9344 311.66876 345.6219 312.10626Q345.3094 312.54376 344.66876 312.79376Q345.46564 313.04376 345.8719 313.6219Q346.27814 314.2 346.27814 314.9969Q346.27814 316.09064 345.4969 316.84064Q344.73126 317.59064 343.45 317.59064Q342.1844 317.59064 341.40314 316.84064Q340.6219 316.09064 340.6219 314.96564Q340.6219 314.1219 341.04376 313.5594Q341.48126 312.9969 342.2625 312.79376ZM342.04376 310.9969Q342.04376 311.60626 342.4344 311.9969Q342.84064 312.3875 343.46564 312.3875Q344.075 312.3875 344.46564 312.0125Q344.85626 311.6219 344.85626 311.0594Q344.85626 310.48126 344.45 310.09064Q344.04376 309.6844 343.45 309.6844Q342.84064 309.6844 342.4344 310.075Q342.04376 310.46564 342.04376 310.9969ZM341.71564 314.96564Q341.71564 315.41876 341.91876 315.84064Q342.1375 316.2625 342.5594 316.4969Q342.98126 316.73126 343.46564 316.73126Q344.21564 316.73126 344.7 316.2469Q345.2 315.7625 345.2 315.0125Q345.2 314.2469 344.7 313.7469Q344.2 313.2469 343.4344 313.2469Q342.6844 313.2469 342.2 313.7469Q341.71564 314.23126 341.71564 314.96564ZM347.6375 313.21564Q347.6375 311.6844 347.95 310.7625Q348.2625 309.825 348.8719 309.325Q349.4969 308.825 350.4344 308.825Q351.1219 308.825 351.6375 309.10626Q352.16876 309.3875 352.5125 309.91876Q352.85626 310.4344 353.04376 311.1844Q353.23126 311.9344 353.23126 313.21564Q353.23126 314.73126 352.91876 315.65314Q352.6219 316.575 351.9969 317.09064Q351.3875 317.59064 350.4344 317.59064Q349.2 317.59064 348.48126 316.7Q347.6375 315.6375 347.6375 313.21564ZM348.71564 313.21564Q348.71564 315.325 349.21564 316.02814Q349.71564 316.73126 350.4344 316.73126Q351.16876 316.73126 351.65314 316.02814Q352.15314 315.325 352.15314 313.21564Q352.15314 311.09064 351.65314 310.40314Q351.16876 309.7 350.41876 309.7Q349.7 309.7 349.2625 310.3094Q348.71564 311.09064 348.71564 313.21564Z" fill-rule="nonzero"/><path fill="#000000" d="M439.4344 316.4344L439.4344 317.45L433.7469 317.45Q433.7469 317.075 433.8719 316.71564Q434.09064 316.1375 434.5594 315.575Q435.04376 315.0125 435.95 314.27814Q437.35626 313.1219 437.84064 312.45Q438.34064 311.77814 438.34064 311.1844Q438.34064 310.5594 437.8875 310.1375Q437.4344 309.7 436.71564 309.7Q435.95 309.7 435.4969 310.15314Q435.04376 310.60626 435.02814 311.41876L433.95 311.3094Q434.0594 310.09064 434.77814 309.46564Q435.5125 308.825 436.7469 308.825Q437.98126 308.825 438.7 309.5125Q439.41876 310.2 439.41876 311.21564Q439.41876 311.73126 439.2 312.23126Q438.9969 312.71564 438.4969 313.27814Q438.0125 313.825 436.8875 314.77814Q435.9344 315.575 435.65314 315.8719Q435.3875 316.15314 435.21564 316.4344L439.4344 316.4344ZM440.8875 313.21564Q440.8875 311.6844 441.2 310.7625Q441.5125 309.825 442.1219 309.325Q442.7469 308.825 443.6844 308.825Q444.3719 308.825 444.8875 309.10626Q445.41876 309.3875 445.7625 309.91876Q446.10626 310.4344 446.29376 311.1844Q446.48126 311.9344 446.48126 313.21564Q446.48126 314.73126 446.16876 315.65314Q445.8719 316.575 445.2469 317.09064Q444.6375 317.59064 443.6844 317.59064Q442.45 317.59064 441.73126 316.7Q440.8875 315.6375 440.8875 313.21564ZM441.96564 313.21564Q441.96564 315.325 442.46564 316.02814Q442.96564 316.73126 443.6844 316.73126Q444.41876 316.73126 444.90314 316.02814Q445.40314 315.325 445.40314 313.21564Q445.40314 311.09064 444.90314 310.40314Q444.41876 309.7 443.66876 309.7Q442.95 309.7 442.5125 310.3094Q441.96564 311.09064 441.96564 313.21564ZM447.8875 313.21564Q447.8875 311.6844 448.2 310.7625Q448.5125 309.825 449.1219 309.325Q449.7469 308.825 450.6844 308.825Q451.3719 308.825 451.8875 309.10626Q452.41876 309.3875 452.7625 309.91876Q453.10626 310.4344 453.29376 311.1844Q453.48126 311.9344 453.48126 313.21564Q453.48126 314.73126 453.16876 315.65314Q452.8719 316.575 452.2469 317.09064Q451.6375 317.59064 450.6844 317.59064Q449.45 317.59064 448.73126 316.7Q447.8875 315.6375 447.8875 313.21564ZM448.96564 313.21564Q448.96564 315.325 449.46564 316.02814Q449.96564 316.73126 450.6844 316.73126Q451.41876 316.73126 451.90314 316.02814Q452.40314 315.325 452.40314 313.21564Q452.40314 311.09064 451.90314 310.40314Q451.41876 309.7 450.66876 309.7Q449.95 309.7 449.5125 310.3094Q448.96564 311.09064 448.96564 313.21564ZM454.8875 313.21564Q454.8875 311.6844 455.2 310.7625Q455.5125 309.825 456.1219 309.325Q456.7469 308.825 457.6844 308.825Q458.3719 308.825 458.8875 309.10626Q459.41876 309.3875 459.7625 309.91876Q460.10626 310.4344 460.29376 311.1844Q460.48126 311.9344 460.48126 313.21564Q460.48126 314.73126 460.16876 315.65314Q459.8719 316.575 459.2469 317.09064Q458.6375 317.59064 457.6844 317.59064Q456.45 317.59064 455.73126 316.7Q454.8875 315.6375 454.8875 313.21564ZM455.96564 313.21564Q455.96564 315.325 456.46564 316.02814Q456.96564 316.73126 457.6844 316.73126Q458.41876 316.73126 458.90314 316.02814Q459.40314 315.325 459.40314 313.21564Q459.40314 311.09064 458.90314 310.40314Q458.41876 309.7 457.66876 309.7Q456.95 309.7 456.5125 310.3094Q455.96564 311.09064 455.96564 313.21564Z" fill-rule="nonzero"/><path fill="#000000" d="M546.6844 316.4344L546.6844 317.45L540.9969 317.45Q540.9969 317.075 541.1219 316.71564Q541.34064 316.1375 541.8094 315.575Q542.29376 315.0125 543.2 314.27814Q544.60626 313.1219 545.09064 312.45Q545.59064 311.77814 545.59064 311.1844Q545.59064 310.5594 545.1375 310.1375Q544.6844 309.7 543.96564 309.7Q543.2 309.7 542.7469 310.15314Q542.29376 310.60626 542.27814 311.41876L541.2 311.3094Q541.3094 310.09064 542.02814 309.46564Q542.7625 308.825 543.9969 308.825Q545.23126 308.825 545.95 309.5125Q546.66876 310.2 546.66876 311.21564Q546.66876 311.73126 546.45 312.23126Q546.2469 312.71564 545.7469 313.27814Q545.2625 313.825 544.1375 314.77814Q543.1844 315.575 542.90314 315.8719Q542.6375 316.15314 542.46564 316.4344L546.6844 316.4344ZM548.1375 313.21564Q548.1375 311.6844 548.45 310.7625Q548.7625 309.825 549.3719 309.325Q549.9969 308.825 550.9344 308.825Q551.6219 308.825 552.1375 309.10626Q552.66876 309.3875 553.0125 309.91876Q553.35626 310.4344 553.54376 311.1844Q553.73126 311.9344 553.73126 313.21564Q553.73126 314.73126 553.41876 315.65314Q553.1219 316.575 552.4969 317.09064Q551.8875 317.59064 550.9344 317.59064Q549.7 317.59064 548.98126 316.7Q548.1375 315.6375 548.1375 313.21564ZM549.21564 313.21564Q549.21564 315.325 549.71564 316.02814Q550.21564 316.73126 550.9344 316.73126Q551.66876 316.73126 552.15314 316.02814Q552.65314 315.325 552.65314 313.21564Q552.65314 311.09064 552.15314 310.40314Q551.66876 309.7 550.91876 309.7Q550.2 309.7 549.7625 310.3094Q549.21564 311.09064 549.21564 313.21564ZM560.6844 316.4344L560.6844 317.45L554.9969 317.45Q554.9969 317.075 555.1219 316.71564Q555.34064 316.1375 555.8094 315.575Q556.29376 315.0125 557.2 314.27814Q558.60626 313.1219 559.09064 312.45Q559.59064 311.77814 559.59064 311.1844Q559.59064 310.5594 559.1375 310.1375Q558.6844 309.7 557.96564 309.7Q557.2 309.7 556.7469 310.15314Q556.29376 310.60626 556.27814 311.41876L555.2 311.3094Q555.3094 310.09064 556.02814 309.46564Q556.7625 308.825 557.9969 308.825Q559.23126 308.825 559.95 309.5125Q560.66876 310.2 560.66876 311.21564Q560.66876 311.73126 560.45 312.23126Q560.2469 312.71564 559.7469 313.27814Q559.2625 313.825 558.1375 314.77814Q557.1844 315.575 556.90314 315.8719Q556.6375 316.15314 556.46564 316.4344L560.6844 316.4344ZM562.1375 313.21564Q562.1375 311.6844 562.45 310.7625Q562.7625 309.825 563.3719 309.325Q563.9969 308.825 564.9344 308.825Q565.6219 308.825 566.1375 309.10626Q566.66876 309.3875 567.0125 309.91876Q567.35626 310.4344 567.54376 311.1844Q567.73126 311.9344 567.73126 313.21564Q567.73126 314.73126 567.41876 315.65314Q567.1219 316.575 566.4969 317.09064Q565.8875 317.59064 564.9344 317.59064Q563.7 317.59064 562.98126 316.7Q562.1375 315.6375 562.1375 313.21564ZM563.21564 313.21564Q563.21564 315.325 563.71564 316.02814Q564.21564 316.73126 564.9344 316.73126Q565.66876 316.73126 566.15314 316.02814Q566.65314 315.325 566.65314 313.21564Q566.65314 311.09064 566.15314 310.40314Q565.66876 309.7 564.91876 309.7Q564.2 309.7 563.7625 310.3094Q563.21564 311.09064 563.21564 313.21564Z" fill-rule="nonzero"/><path fill="#757575" d="M19.45625 32.95625L21.2375 32.8Q21.3625 33.8625 21.815624 34.55Q22.284374 35.2375 23.253124 35.675Q24.2375 36.096874 25.471874 36.096874Q26.55 36.096874 27.378124 35.784374Q28.20625 35.45625 28.6125 34.89375Q29.01875 34.33125 29.01875 33.659374Q29.01875 32.9875 28.628124 32.4875Q28.2375 31.9875 27.346874 31.64375Q26.76875 31.409374 24.784374 30.940624Q22.815624 30.471874 22.034374 30.05Q21.003124 29.51875 20.503124 28.721874Q20.003124 27.925 20.003124 26.940624Q20.003124 25.846874 20.6125 24.909374Q21.221874 23.971874 22.409374 23.4875Q23.596874 22.9875 25.034374 22.9875Q26.628124 22.9875 27.846874 23.503124Q29.065624 24.01875 29.70625 25.01875Q30.3625 26.003124 30.409374 27.26875L28.596874 27.409374Q28.45625 26.05 27.6125 25.3625Q26.76875 24.659374 25.1125 24.659374Q23.39375 24.659374 22.596874 25.3Q21.815624 25.925 21.815624 26.8Q21.815624 27.58125 22.378124 28.08125Q22.925 28.58125 25.2375 29.096874Q27.55 29.6125 28.409374 30.003124Q29.659374 30.58125 30.253124 31.471874Q30.846874 32.346874 30.846874 33.503124Q30.846874 34.64375 30.190624 35.659374Q29.534374 36.675 28.3 37.2375Q27.08125 37.8 25.55 37.8Q23.6125 37.8 22.3 37.2375Q20.9875 36.659374 20.2375 35.51875Q19.4875 34.378124 19.45625 32.95625ZM42.4875 23.2375L44.378124 23.2375L44.378124 31.503124Q44.378124 33.659374 43.89375 34.940624Q43.409374 36.20625 42.128124 37.003124Q40.8625 37.8 38.784374 37.8Q36.76875 37.8 35.4875 37.1125Q34.221874 36.409374 33.675 35.096874Q33.128124 33.784374 33.128124 31.503124L33.128124 23.2375L35.01875 23.2375L35.01875 31.4875Q35.01875 33.3625 35.3625 34.253124Q35.70625 35.128124 36.55 35.6125Q37.39375 36.08125 38.628124 36.08125Q40.70625 36.08125 41.596874 35.14375Q42.4875 34.190624 42.4875 31.4875L42.4875 23.2375ZM46.034374 37.55L46.034374 23.2375L48.89375 23.2375L52.26875 33.3625Q52.7375 34.784374 52.95625 35.4875Q53.20625 34.70625 53.721874 33.190624L57.14375 23.2375L59.690624 23.2375L59.690624 37.55L57.878124 37.55L57.878124 25.565624L53.70625 37.55L52.003124 37.55L47.8625 25.3625L47.8625 37.55L46.034374 37.55ZM75.59688 37.55L75.59688 36.2375Q74.6125 37.784374 72.69063 37.784374Q71.45625 37.784374 70.40938 37.096874Q69.37813 36.409374 68.8 35.190624Q68.2375 33.971874 68.2375 32.378124Q68.2375 30.815624 68.75313 29.55Q69.26875 28.284374 70.3 27.6125Q71.34688 26.940624 72.6125 26.940624Q73.55 26.940624 74.28438 27.346874Q75.01875 27.7375 75.4875 28.3625L75.4875 23.2375L77.22188 23.2375L77.22188 37.55L75.59688 37.55ZM70.03438 32.378124Q70.03438 34.3625 70.87813 35.346874Q71.72188 36.33125 72.8625 36.33125Q74.01875 36.33125 74.81563 35.39375Q75.62813 34.45625 75.62813 32.51875Q75.62813 30.39375 74.8 29.39375Q73.9875 28.39375 72.78438 28.39375Q71.6125 28.39375 70.81563 29.3625Q70.03438 30.315624 70.03438 32.378124ZM86.97188 34.20625L88.78438 34.440624Q88.3625 36.01875 87.19063 36.909374Q86.03438 37.784374 84.22188 37.784374Q81.95625 37.784374 80.6125 36.39375Q79.28438 34.9875 79.28438 32.45625Q79.28438 29.83125 80.62813 28.39375Q81.97188 26.940624 84.12813 26.940624Q86.20625 26.940624 87.51875 28.3625Q88.84688 29.76875 88.84688 32.346874Q88.84688 32.503124 88.83125 32.815624L81.09688 32.815624Q81.19063 34.51875 82.06563 35.425Q82.94063 36.33125 84.2375 36.33125Q85.20625 36.33125 85.87813 35.83125Q86.56563 35.315624 86.97188 34.20625ZM81.19063 31.3625L86.9875 31.3625Q86.87813 30.065624 86.33125 29.409374Q85.4875 28.39375 84.14375 28.39375Q82.94063 28.39375 82.1125 29.20625Q81.28438 30.003124 81.19063 31.3625ZM102.8625 41.51875L102.8625 27.175L104.47188 27.175L104.47188 28.51875Q105.03438 27.7375 105.7375 27.346874Q106.45625 26.940624 107.47188 26.940624Q108.8 26.940624 109.81563 27.628124Q110.83125 28.315624 111.34688 29.565624Q111.87813 30.8 111.87813 32.284374Q111.87813 33.878124 111.3 35.159374Q110.7375 36.425 109.64375 37.1125Q108.55 37.784374 107.34688 37.784374Q106.47188 37.784374 105.76875 37.409374Q105.08125 37.034374 104.62813 36.471874L104.62813 41.51875L102.8625 41.51875ZM104.45625 32.425Q104.45625 34.425 105.26875 35.378124Q106.08125 36.33125 107.2375 36.33125Q108.40938 36.33125 109.2375 35.346874Q110.08125 34.3625 110.08125 32.26875Q110.08125 30.3 109.25313 29.315624Q108.44063 28.315624 107.31563 28.315624Q106.19063 28.315624 105.31563 29.378124Q104.45625 30.425 104.45625 32.425ZM120.64375 36.26875Q119.65938 37.096874 118.75313 37.440624Q117.84688 37.784374 116.81563 37.784374Q115.1125 37.784374 114.19063 36.95625Q113.26875 36.1125 113.26875 34.815624Q113.26875 34.05 113.6125 33.425Q113.97188 32.8 114.53438 32.425Q115.09688 32.034374 115.8 31.83125Q116.31563 31.70625 117.3625 31.565624Q119.4875 31.315624 120.4875 30.971874Q120.50313 30.6125 120.50313 30.503124Q120.50313 29.440624 120.00313 28.9875Q119.33125 28.39375 118.00313 28.39375Q116.75313 28.39375 116.15938 28.83125Q115.58125 29.26875 115.3 30.378124L113.58125 30.14375Q113.81563 29.034374 114.34688 28.3625Q114.87813 27.675 115.89375 27.315624Q116.90938 26.940624 118.25313 26.940624Q119.58125 26.940624 120.40938 27.253124Q121.2375 27.565624 121.62813 28.05Q122.01875 28.51875 122.175 29.2375Q122.26875 29.690624 122.26875 30.8625L122.26875 33.20625Q122.26875 35.659374 122.37813 36.315624Q122.4875 36.95625 122.83125 37.55L120.9875 37.55Q120.72188 37.003124 120.64375 36.26875ZM120.4875 32.346874Q119.53438 32.7375 117.6125 33.003124Q116.53438 33.159374 116.08125 33.3625Q115.64375 33.55 115.39375 33.925Q115.14375 34.3 115.14375 34.76875Q115.14375 35.471874 115.675 35.940624Q116.20625 36.409374 117.2375 36.409374Q118.25313 36.409374 119.03438 35.971874Q119.83125 35.51875 120.20625 34.753124Q120.4875 34.14375 120.4875 32.9875L120.4875 32.346874ZM124.84688 37.55L124.84688 27.175L126.425 27.175L126.425 28.753124Q127.03438 27.64375 127.55 27.3Q128.06563 26.940624 128.675 26.940624Q129.56563 26.940624 130.4875 27.503124L129.87813 29.14375Q129.2375 28.753124 128.59688 28.753124Q128.01875 28.753124 127.55 29.1125Q127.09688 29.45625 126.89375 30.065624Q126.6125 31.003124 126.6125 32.1125L126.6125 37.55L124.84688 37.55ZM137.84688 37.55L137.84688 27.175L139.425 27.175L139.425 28.753124Q140.03438 27.64375 140.55 27.3Q141.06563 26.940624 141.675 26.940624Q142.56563 26.940624 143.4875 27.503124L142.87813 29.14375Q142.2375 28.753124 141.59688 28.753124Q141.01875 28.753124 140.55 29.1125Q140.09688 29.45625 139.89375 30.065624Q139.6125 31.003124 139.6125 32.1125L139.6125 37.55L137.84688 37.55ZM151.64375 36.26875Q150.65938 37.096874 149.75313 37.440624Q148.84688 37.784374 147.81563 37.784374Q146.1125 37.784374 145.19063 36.95625Q144.26875 36.1125 144.26875 34.815624Q144.26875 34.05 144.6125 33.425Q144.97188 32.8 145.53438 32.425Q146.09688 32.034374 146.8 31.83125Q147.31563 31.70625 148.3625 31.565624Q150.4875 31.315624 151.4875 30.971874Q151.50313 30.6125 151.50313 30.503124Q151.50313 29.440624 151.00313 28.9875Q150.33125 28.39375 149.00313 28.39375Q147.75313 28.39375 147.15938 28.83125Q146.58125 29.26875 146.3 30.378124L144.58125 30.14375Q144.81563 29.034374 145.34688 28.3625Q145.87813 27.675 146.89375 27.315624Q147.90938 26.940624 149.25313 26.940624Q150.58125 26.940624 151.40938 27.253124Q152.2375 27.565624 152.62813 28.05Q153.01875 28.51875 153.175 29.2375Q153.26875 29.690624 153.26875 30.8625L153.26875 33.20625Q153.26875 35.659374 153.37813 36.315624Q153.4875 36.95625 153.83125 37.55L151.9875 37.55Q151.72188 37.003124 151.64375 36.26875ZM151.4875 32.346874Q150.53438 32.7375 148.6125 33.003124Q147.53438 33.159374 147.08125 33.3625Q146.64375 33.55 146.39375 33.925Q146.14375 34.3 146.14375 34.76875Q146.14375 35.471874 146.675 35.940624Q147.20625 36.409374 148.2375 36.409374Q149.25313 36.409374 150.03438 35.971874Q150.83125 35.51875 151.20625 34.753124Q151.4875 34.14375 151.4875 32.9875L151.4875 32.346874ZM155.8625 41.51875L155.8625 27.175L157.47188 27.175L157.47188 28.51875Q158.03438 27.7375 158.7375 27.346874Q159.45625 26.940624 160.47188 26.940624Q161.8 26.940624 162.81563 27.628124Q163.83125 28.315624 164.34688 29.565624Q164.87813 30.8 164.87813 32.284374Q164.87813 33.878124 164.3 35.159374Q163.7375 36.425 162.64375 37.1125Q161.55 37.784374 160.34688 37.784374Q159.47188 37.784374 158.76875 37.409374Q158.08125 37.034374 157.62813 36.471874L157.62813 41.51875L155.8625 41.51875ZM157.45625 32.425Q157.45625 34.425 158.26875 35.378124Q159.08125 36.33125 160.2375 36.33125Q161.40938 36.33125 162.2375 35.346874Q163.08125 34.3625 163.08125 32.26875Q163.08125 30.3 162.25313 29.315624Q161.44063 28.315624 160.31563 28.315624Q159.19063 28.315624 158.31563 29.378124Q157.45625 30.425 157.45625 32.425ZM166.8625 41.51875L166.8625 27.175L168.47188 27.175L168.47188 28.51875Q169.03438 27.7375 169.7375 27.346874Q170.45625 26.940624 171.47188 26.940624Q172.8 26.940624 173.81563 27.628124Q174.83125 28.315624 175.34688 29.565624Q175.87813 30.8 175.87813 32.284374Q175.87813 33.878124 175.3 35.159374Q174.7375 36.425 173.64375 37.1125Q172.55 37.784374 171.34688 37.784374Q170.47188 37.784374 169.76875 37.409374Q169.08125 37.034374 168.62813 36.471874L168.62813 41.51875L166.8625 41.51875ZM168.45625 32.425Q168.45625 34.425 169.26875 35.378124Q170.08125 36.33125 171.2375 36.33125Q172.40938 36.33125 173.2375 35.346874Q174.08125 34.3625 174.08125 32.26875Q174.08125 30.3 173.25313 29.315624Q172.44063 28.315624 171.31563 28.315624Q170.19063 28.315624 169.31563 29.378124Q168.45625 30.425 168.45625 32.425ZM177.22188 32.3625Q177.22188 29.4875 178.81563 28.096874Q180.15938 26.940624 182.08125 26.940624Q184.22188 26.940624 185.56563 28.346874Q186.925 29.753124 186.925 32.221874Q186.925 34.221874 186.33125 35.378124Q185.7375 36.51875 184.58125 37.159374Q183.44063 37.784374 182.08125 37.784374Q179.89375 37.784374 178.55 36.39375Q177.22188 34.9875 177.22188 32.3625ZM179.01875 32.3625Q179.01875 34.3625 179.87813 35.346874Q180.75313 36.33125 182.08125 36.33125Q183.39375 36.33125 184.25313 35.346874Q185.12813 34.346874 185.12813 32.3Q185.12813 30.378124 184.25313 29.39375Q183.37813 28.39375 182.08125 28.39375Q180.75313 28.39375 179.87813 29.39375Q179.01875 30.378124 179.01875 32.3625ZM188.84688 37.55L188.84688 27.175L190.425 27.175L190.425 28.753124Q191.03438 27.64375 191.55 27.3Q192.06563 26.940624 192.675 26.940624Q193.56563 26.940624 194.4875 27.503124L193.87813 29.14375Q193.2375 28.753124 192.59688 28.753124Q192.01875 28.753124 191.55 29.1125Q191.09688 29.45625 190.89375 30.065624Q190.6125 31.003124 190.6125 32.1125L190.6125 37.55L188.84688 37.55ZM199.70625 35.971874L199.95625 37.534374Q199.22188 37.690624 198.62813 37.690624Q197.675 37.690624 197.14375 37.39375Q196.62813 37.08125 196.40938 36.596874Q196.19063 36.096874 196.19063 34.51875L196.19063 28.55L194.90938 28.55L194.90938 27.175L196.19063 27.175L196.19063 24.6125L197.94063 23.55L197.94063 27.175L199.70625 27.175L199.70625 28.55L197.94063 28.55L197.94063 34.6125Q197.94063 35.3625 198.03438 35.58125Q198.12813 35.784374 198.33125 35.925Q198.55 36.05 198.94063 36.05Q199.22188 36.05 199.70625 35.971874ZM214.64375 36.26875Q213.65938 37.096874 212.75313 37.440624Q211.84688 37.784374 210.81563 37.784374Q209.1125 37.784374 208.19063 36.95625Q207.26875 36.1125 207.26875 34.815624Q207.26875 34.05 207.6125 33.425Q207.97188 32.8 208.53438 32.425Q209.09688 32.034374 209.8 31.83125Q210.31563 31.70625 211.3625 31.565624Q213.4875 31.315624 214.4875 30.971874Q214.50313 30.6125 214.50313 30.503124Q214.50313 29.440624 214.00313 28.9875Q213.33125 28.39375 212.00313 28.39375Q210.75313 28.39375 210.15938 28.83125Q209.58125 29.26875 209.3 30.378124L207.58125 30.14375Q207.81563 29.034374 208.34688 28.3625Q208.87813 27.675 209.89375 27.315624Q210.90938 26.940624 212.25313 26.940624Q213.58125 26.940624 214.40938 27.253124Q215.2375 27.565624 215.62813 28.05Q216.01875 28.51875 216.175 29.2375Q216.26875 29.690624 216.26875 30.8625L216.26875 33.20625Q216.26875 35.659374 216.37813 36.315624Q216.4875 36.95625 216.83125 37.55L214.9875 37.55Q214.72188 37.003124 214.64375 36.26875ZM214.4875 32.346874Q213.53438 32.7375 211.6125 33.003124Q210.53438 33.159374 210.08125 33.3625Q209.64375 33.55 209.39375 33.925Q209.14375 34.3 209.14375 34.76875Q209.14375 35.471874 209.675 35.940624Q210.20625 36.409374 211.2375 36.409374Q212.25313 36.409374 213.03438 35.971874Q213.83125 35.51875 214.20625 34.753124Q214.4875 34.14375 214.4875 32.9875L214.4875 32.346874ZM213.53438 25.89375L212.1125 25.89375L209.8625 23.159374L212.20625 23.159374L213.53438 25.89375ZM225.12813 37.55L225.12813 23.2375L231.47188 23.2375Q233.37813 23.2375 234.37813 23.628124Q235.37813 24.003124 235.97188 24.9875Q236.56563 25.95625 236.56563 27.14375Q236.56563 28.659374 235.58125 29.70625Q234.59688 30.753124 232.53438 31.034374Q233.28438 31.39375 233.675 31.753124Q234.50313 32.503124 235.25313 33.659374L237.7375 37.55L235.3625 37.55L233.45625 34.565624Q232.62813 33.284374 232.09688 32.596874Q231.56563 31.909374 231.12813 31.64375Q230.70625 31.3625 230.26875 31.253124Q229.94063 31.190624 229.22188 31.190624L227.01875 31.190624L227.01875 37.55L225.12813 37.55ZM227.01875 29.55L231.09688 29.55Q232.39375 29.55 233.1125 29.284374Q233.84688 29.01875 234.22188 28.425Q234.6125 27.83125 234.6125 27.14375Q234.6125 26.128124 233.87813 25.471874Q233.14375 24.815624 231.55 24.815624L227.01875 24.815624L227.01875 29.55ZM245.97188 34.20625L247.78438 34.440624Q247.3625 36.01875 246.19063 36.909374Q245.03438 37.784374 243.22188 37.784374Q240.95625 37.784374 239.6125 36.39375Q238.28438 34.9875 238.28438 32.45625Q238.28438 29.83125 239.62813 28.39375Q240.97188 26.940624 243.12813 26.940624Q245.20625 26.940624 246.51875 28.3625Q247.84688 29.76875 247.84688 32.346874Q247.84688 32.503124 247.83125 32.815624L240.09688 32.815624Q240.19063 34.51875 241.06563 35.425Q241.94063 36.33125 243.2375 36.33125Q244.20625 36.33125 244.87813 35.83125Q245.56563 35.315624 245.97188 34.20625ZM240.19063 31.3625L245.9875 31.3625Q245.87813 30.065624 245.33125 29.409374Q244.4875 28.39375 243.14375 28.39375Q241.94063 28.39375 241.1125 29.20625Q240.28438 30.003124 240.19063 31.3625ZM249.83125 37.55L249.83125 23.2375L251.58125 23.2375L251.58125 37.55L249.83125 37.55ZM260.97186 34.20625L262.78436 34.440624Q262.3625 36.01875 261.1906 36.909374Q260.03436 37.784374 258.22186 37.784374Q255.95625 37.784374 254.6125 36.39375Q253.28438 34.9875 253.28438 32.45625Q253.28438 29.83125 254.62813 28.39375Q255.97188 26.940624 258.1281 26.940624Q260.20624 26.940624 261.51874 28.3625Q262.84686 29.76875 262.84686 32.346874Q262.84686 32.503124 262.83124 32.815624L255.09688 32.815624Q255.19063 34.51875 256.0656 35.425Q256.9406 36.33125 258.2375 36.33125Q259.20624 36.33125 259.8781 35.83125Q260.5656 35.315624 260.97186 34.20625ZM255.19063 31.3625L260.9875 31.3625Q260.8781 30.065624 260.33124 29.409374Q259.4875 28.39375 258.14374 28.39375Q256.9406 28.39375 256.1125 29.20625Q255.28438 30.003124 255.19063 31.3625ZM271.64374 36.26875Q270.65936 37.096874 269.7531 37.440624Q268.84686 37.784374 267.8156 37.784374Q266.1125 37.784374 265.1906 36.95625Q264.26874 36.1125 264.26874 34.815624Q264.26874 34.05 264.6125 33.425Q264.97186 32.8 265.53436 32.425Q266.09686 32.034374 266.8 31.83125Q267.3156 31.70625 268.3625 31.565624Q270.4875 31.315624 271.4875 30.971874Q271.5031 30.6125 271.5031 30.503124Q271.5031 29.440624 271.0031 28.9875Q270.33124 28.39375 269.0031 28.39375Q267.7531 28.39375 267.15936 28.83125Q266.58124 29.26875 266.3 30.378124L264.58124 30.14375Q264.8156 29.034374 265.34686 28.3625Q265.8781 27.675 266.89374 27.315624Q267.90936 26.940624 269.2531 26.940624Q270.58124 26.940624 271.40936 27.253124Q272.2375 27.565624 272.6281 28.05Q273.01874 28.51875 273.175 29.2375Q273.26874 29.690624 273.26874 30.8625L273.26874 33.20625Q273.26874 35.659374 273.3781 36.315624Q273.4875 36.95625 273.83124 37.55L271.9875 37.55Q271.72186 37.003124 271.64374 36.26875ZM271.4875 32.346874Q270.53436 32.7375 268.6125 33.003124Q267.53436 33.159374 267.08124 33.3625Q266.64374 33.55 266.39374 33.925Q266.14374 34.3 266.14374 34.76875Q266.14374 35.471874 266.675 35.940624Q267.20624 36.409374 268.2375 36.409374Q269.2531 36.409374 270.03436 35.971874Q270.83124 35.51875 271.20624 34.753124Q271.4875 34.14375 271.4875 32.9875L271.4875 32.346874ZM275.15936 34.45625L276.90936 34.175Q277.05 35.221874 277.72186 35.784374Q278.39374 36.33125 279.59686 36.33125Q280.8 36.33125 281.3781 35.846874Q281.97186 35.346874 281.97186 34.690624Q281.97186 34.096874 281.45624 33.753124Q281.09686 33.51875 279.65936 33.159374Q277.72186 32.659374 276.97186 32.315624Q276.2375 31.95625 275.84686 31.33125Q275.45624 30.690624 275.45624 29.925Q275.45624 29.2375 275.76874 28.64375Q276.09686 28.05 276.64374 27.659374Q277.05 27.3625 277.7531 27.159374Q278.47186 26.940624 279.28436 26.940624Q280.5031 26.940624 281.425 27.3Q282.34686 27.64375 282.78436 28.253124Q283.22186 28.846874 283.39374 29.846874L281.675 30.08125Q281.55 29.284374 280.9875 28.846874Q280.425 28.39375 279.40936 28.39375Q278.1906 28.39375 277.675 28.8Q277.15936 29.190624 277.15936 29.721874Q277.15936 30.065624 277.3781 30.346874Q277.58124 30.628124 278.05 30.815624Q278.3156 30.909374 279.59686 31.253124Q281.47186 31.753124 282.20624 32.08125Q282.9406 32.39375 283.3625 33.003124Q283.78436 33.596874 283.78436 34.503124Q283.78436 35.378124 283.26874 36.159374Q282.7531 36.940624 281.78436 37.3625Q280.8156 37.784374 279.59686 37.784374Q277.58124 37.784374 276.51874 36.940624Q275.45624 36.096874 275.15936 34.45625ZM292.97186 34.20625L294.78436 34.440624Q294.3625 36.01875 293.1906 36.909374Q292.03436 37.784374 290.22186 37.784374Q287.95624 37.784374 286.6125 36.39375Q285.28436 34.9875 285.28436 32.45625Q285.28436 29.83125 286.6281 28.39375Q287.97186 26.940624 290.1281 26.940624Q292.20624 26.940624 293.51874 28.3625Q294.84686 29.76875 294.84686 32.346874Q294.84686 32.503124 294.83124 32.815624L287.09686 32.815624Q287.1906 34.51875 288.0656 35.425Q288.9406 36.33125 290.2375 36.33125Q291.20624 36.33125 291.8781 35.83125Q292.5656 35.315624 292.97186 34.20625ZM287.1906 31.3625L292.9875 31.3625Q292.8781 30.065624 292.33124 29.409374Q291.4875 28.39375 290.14374 28.39375Q288.9406 28.39375 288.1125 29.20625Q287.28436 30.003124 287.1906 31.3625ZM303.59686 37.55L303.59686 36.2375Q302.6125 37.784374 300.6906 37.784374Q299.45624 37.784374 298.40936 37.096874Q297.3781 36.409374 296.8 35.190624Q296.2375 33.971874 296.2375 32.378124Q296.2375 30.815624 296.7531 29.55Q297.26874 28.284374 298.3 27.6125Q299.34686 26.940624 300.6125 26.940624Q301.55 26.940624 302.28436 27.346874Q303.01874 27.7375 303.4875 28.3625L303.4875 23.2375L305.22186 23.2375L305.22186 37.55L303.59686 37.55ZM298.03436 32.378124Q298.03436 34.3625 298.8781 35.346874Q299.72186 36.33125 300.8625 36.33125Q302.01874 36.33125 302.8156 35.39375Q303.6281 34.45625 303.6281 32.51875Q303.6281 30.39375 302.8 29.39375Q301.9875 28.39375 300.78436 28.39375Q299.6125 28.39375 298.8156 29.3625Q298.03436 30.315624 298.03436 32.378124Z" fill-rule="nonzero"/></svg>